<svg width="39" height="40" viewBox="0 0 39 40" fill="none" xmlns="http://www.w3.org/2000/svg">
<path d="M19.1673 10.6572C13.9367 10.6572 9.69617 14.8859 9.69617 20.1032C9.69617 25.3199 13.9367 29.5492 19.1673 29.5492C24.3979 29.5492 28.6384 25.3199 28.6384 20.1032C28.6384 14.8859 24.3979 10.6572 19.1673 10.6572ZM35.1672 20.1032C35.1672 28.916 28.0036 36.0601 19.1673 36.0601C10.331 36.0601 3.16797 28.916 3.16797 20.1032C3.16797 11.2903 10.331 4.14573 19.1673 4.14573C28.0036 4.14573 35.1672 11.2903 35.1672 20.1032Z" fill="#0F3858"/>
<path d="M21.7011 6.98456C21.7011 8.37979 20.5666 9.51074 19.1677 9.51074C17.7687 9.51074 16.6348 8.37979 16.6348 6.98456C16.6348 5.58874 17.7687 4.4578 19.1677 4.4578C20.5666 4.4578 21.7011 5.58874 21.7011 6.98456Z" fill="#B0D2D3"/>
<path d="M14.7856 7.47832C15.4851 8.68651 15.0698 10.2316 13.8584 10.9292C12.647 11.6268 11.0978 11.2127 10.3983 10.0045C9.69887 8.7963 10.1141 7.25121 11.3255 6.55359C12.5369 5.85597 14.0861 6.26954 14.7856 7.47832Z" fill="#B0D2D3"/>
<path d="M9.04259 11.3553C10.254 12.0535 10.6693 13.5985 9.9692 14.8067C9.27031 16.0149 7.72053 16.4291 6.50912 15.7315C5.29771 15.0339 4.88246 13.4888 5.58193 12.2806C6.2814 11.0718 7.8306 10.6576 9.04259 11.3553Z" fill="#B0D2D3"/>
<path d="M6.01336 17.5771C7.4123 17.5771 8.54624 18.7074 8.54624 20.1032C8.54624 21.4985 7.4123 22.6294 6.01336 22.6294C4.61441 22.6294 3.48047 21.4985 3.48047 20.1032C3.48047 18.7074 4.61441 17.5771 6.01336 17.5771Z" fill="#B0D2D3"/>
<path d="M6.50912 24.4745C7.72053 23.7769 9.27031 24.1904 9.9692 25.3992C10.6693 26.6074 10.254 28.1525 9.04259 28.8501C7.8306 29.5477 6.2814 29.1336 5.58193 27.9254C4.88246 26.7172 5.29771 25.1721 6.50912 24.4745Z" fill="#B0D2D3"/>
<path d="M10.3983 30.2009C11.0978 28.9927 12.647 28.5791 13.8584 29.2762C15.0698 29.9738 15.4851 31.5194 14.7856 32.7276C14.0861 33.9358 12.5369 34.35 11.3255 33.6524C10.1141 32.9547 9.69887 31.4097 10.3983 30.2009Z" fill="#B0D2D3"/>
<path d="M16.6348 33.2219C16.6348 31.8266 17.7687 30.6951 19.1677 30.6951C20.5666 30.6951 21.7011 31.8266 21.7011 33.2219C21.7011 34.6171 20.5666 35.748 19.1677 35.748C17.7687 35.748 16.6348 34.6171 16.6348 33.2219Z" fill="#B0D2D3"/>
<path d="M23.5507 32.7276C22.8512 31.5194 23.2665 29.9738 24.4779 29.2762C25.6893 28.5791 27.2385 28.9927 27.9379 30.2009C28.638 31.4097 28.2227 32.9547 27.0113 33.6524C25.7994 34.35 24.2502 33.9358 23.5507 32.7276Z" fill="#B0D2D3"/>
<path d="M29.2925 28.8501C28.0805 28.1525 27.6658 26.6074 28.3653 25.3992C29.0647 24.1904 30.6139 23.7769 31.8253 24.4745C33.0367 25.1721 33.452 26.7172 32.7525 27.9254C32.0531 29.1336 30.5039 29.5477 29.2925 28.8501Z" fill="#B0D2D3"/>
<path d="M32.32 22.6294C30.9211 22.6294 29.7871 21.4985 29.7871 20.1032C29.7871 18.7074 30.9211 17.5771 32.32 17.5771C33.7189 17.5771 34.8535 18.7074 34.8535 20.1032C34.8535 21.4985 33.7189 22.6294 32.32 22.6294Z" fill="#B0D2D3"/>
<path d="M31.8253 15.7315C30.6139 16.4291 29.0647 16.0149 28.3653 14.8067C27.6658 13.5985 28.0805 12.0535 29.2925 11.3553C30.5039 10.6576 32.0531 11.0718 32.7525 12.2806C33.452 13.4888 33.0367 15.0339 31.8253 15.7315Z" fill="#B0D2D3"/>
<path d="M27.9379 10.0045C27.2385 11.2127 25.6893 11.6268 24.4779 10.9292C23.2665 10.2316 22.8512 8.68651 23.5507 7.47832C24.2502 6.26954 25.7994 5.85597 27.0113 6.55359C28.2227 7.25121 28.638 8.7963 27.9379 10.0045Z" fill="#B0D2D3"/>
<path d="M19.1681 35.9806C10.3755 35.9806 3.24795 28.872 3.24795 20.1028C3.24795 11.3335 10.3755 4.22429 19.1681 4.22429C27.9607 4.22429 35.0887 11.3335 35.0887 20.1028C35.0887 28.872 27.9607 35.9806 19.1681 35.9806ZM19.1681 1.25435C8.73074 1.25435 0.269531 9.69311 0.269531 20.1028C0.269531 30.5124 8.73074 38.9512 19.1681 38.9512C29.6054 38.9512 38.0666 30.5124 38.0666 20.1028C38.0666 9.69311 29.6054 1.25435 19.1681 1.25435Z" fill="#B0D2D3"/>
<path d="M19.1675 27.6148C15.0079 27.6148 11.6358 24.2516 11.6358 20.1031C11.6358 15.9546 15.0079 12.5914 19.1675 12.5914C23.327 12.5914 26.6991 15.9546 26.6991 20.1031C26.6991 24.2516 23.327 27.6148 19.1675 27.6148ZM19.1675 9.80033C13.4628 9.80033 8.83789 14.413 8.83789 20.1031C8.83789 25.7926 13.4628 30.4053 19.1675 30.4053C24.8727 30.4053 29.497 25.7926 29.497 20.1031C29.497 14.413 24.8727 9.80033 19.1675 9.80033Z" fill="#B0D2D3"/>
<path d="M19.1674 12.6058C15.016 12.6058 11.6503 15.9626 11.6503 20.103C11.6503 24.2434 15.016 27.5996 19.1674 27.5996C23.3188 27.5996 26.6845 24.2434 26.6845 20.103C26.6845 15.9626 23.3188 12.6058 19.1674 12.6058ZM27.0281 20.103C27.0281 24.4327 23.5087 27.9429 19.1674 27.9429C14.8261 27.9429 11.3066 24.4327 11.3066 20.103C11.3066 15.7732 14.8261 12.2631 19.1674 12.2631C23.5087 12.2631 27.0281 15.7732 27.0281 20.103Z" fill="#0F3858"/>
<path d="M19.1682 0.984921C8.58178 0.984921 0 9.54393 0 20.1029C0 30.6612 8.58178 39.2202 19.1682 39.2202C29.7546 39.2202 38.3369 30.6612 38.3369 20.1029C38.3369 9.54393 29.7546 0.984921 19.1682 0.984921ZM37.68 20.1029C37.68 30.2993 29.3918 38.5656 19.1682 38.5656C8.94462 38.5656 0.656374 30.2993 0.656374 20.1029C0.656374 9.90581 8.94462 1.64012 19.1682 1.64012C29.3918 1.64012 37.68 9.90581 37.68 20.1029Z" fill="#E75643"/>
</svg>
