<svg width="39" height="40" viewBox="0 0 39 40" fill="none" xmlns="http://www.w3.org/2000/svg">
<path d="M19.7904 8.0239C12.7115 8.0239 6.9733 13.7902 6.9733 20.9027C6.9733 28.0157 12.7115 33.7814 19.7904 33.7814C26.8688 33.7814 32.6075 28.0157 32.6075 20.9027C32.6075 13.7902 26.8688 8.0239 19.7904 8.0239ZM38.0197 20.9027C38.0197 31.0192 29.858 39.2202 19.7904 39.2202C9.72229 39.2202 1.56055 31.0192 1.56055 20.9027C1.56055 10.7867 9.72229 2.5857 19.7904 2.5857C29.858 2.5857 38.0197 10.7867 38.0197 20.9027Z" fill="#B0D2D3"/>
<path d="M19.7914 8.90385C13.1962 8.90385 7.84968 14.2761 7.84968 20.903C7.84968 27.5299 13.1962 32.9021 19.7914 32.9021C26.3865 32.9021 31.7325 27.5299 31.7325 20.903C31.7325 14.2761 26.3865 8.90385 19.7914 8.90385ZM32.6857 20.903C32.6857 28.0588 26.9129 33.8599 19.7914 33.8599C12.6698 33.8599 6.89648 28.0588 6.89648 20.903C6.89648 13.7471 12.6698 7.94665 19.7914 7.94665C26.9129 7.94665 32.6857 13.7471 32.6857 20.903Z" fill="#E75643"/>
<path d="M19.7897 12.5447C15.1954 12.5447 11.4713 16.2867 11.4713 20.9025C11.4713 25.5189 15.1954 29.2609 19.7897 29.2609C24.3835 29.2609 28.1076 25.5189 28.1076 20.9025C28.1076 16.2867 24.3835 12.5447 19.7897 12.5447ZM32.1023 20.9025C32.1023 27.7354 26.5899 33.2749 19.7897 33.2749C12.9895 33.2749 7.47656 27.7354 7.47656 20.9025C7.47656 14.0696 12.9895 8.5307 19.7897 8.5307C26.5899 8.5307 32.1023 14.0696 32.1023 20.9025Z" fill="#5E9EA7"/>
<path d="M26.3301 18.7499C26.1757 18.2719 25.6643 18.0097 25.1886 18.1654C24.7122 18.321 24.4519 18.8344 24.6063 19.3124C24.7612 19.791 25.2727 20.0526 25.7484 19.8975C26.2241 19.7418 26.485 19.2279 26.3301 18.7499ZM23.8322 26.4746C24.2371 26.1789 24.3269 25.6094 24.0326 25.2026C23.7383 24.7957 23.1722 24.706 22.7673 25.0012C22.3624 25.2969 22.2725 25.8664 22.5663 26.2732C22.8606 26.68 23.4273 26.7703 23.8322 26.4746ZM15.7488 26.4746C16.1537 26.7703 16.7204 26.68 17.0147 26.2732C17.309 25.8664 17.2192 25.2969 16.8143 25.0012C16.4094 24.706 15.8427 24.7957 15.5484 25.2026C15.2546 25.6094 15.3439 26.1789 15.7488 26.4746ZM13.2509 18.7499C13.0965 19.2279 13.3569 19.7418 13.8326 19.8975C14.3089 20.0526 14.8198 19.791 14.9747 19.3124C15.1296 18.8344 14.8687 18.321 14.393 18.1654C13.9173 18.0097 13.4058 18.2719 13.2509 18.7499ZM19.7908 13.976C19.2903 13.976 18.8842 14.3835 18.8842 14.8864C18.8842 15.3893 19.2903 15.7967 19.7908 15.7967C20.2913 15.7967 20.6967 15.3893 20.6967 14.8864C20.6967 14.3835 20.2913 13.976 19.7908 13.976ZM19.7908 16.9009C17.5907 16.9009 15.8075 18.6926 15.8075 20.9027C15.8075 23.1134 17.5907 24.9051 19.7908 24.9051C21.9903 24.9051 23.7735 23.1134 23.7735 20.9027C23.7735 18.6926 21.9903 16.9009 19.7908 16.9009ZM28.0913 20.9027C28.0913 25.5093 24.3747 29.2432 19.7908 29.2432C15.2062 29.2432 11.4902 25.5093 11.4902 20.9027C11.4902 16.2967 15.2062 12.5622 19.7908 12.5622C24.3747 12.5622 28.0913 16.2967 28.0913 20.9027Z" fill="#464F53"/>
<path d="M5.76249 20.6577C5.55112 20.6577 5.37891 20.4847 5.37891 20.2717C5.37891 20.0593 5.55112 19.8863 5.76249 19.8863C5.97444 19.8863 6.14664 20.0593 6.14664 20.2717C6.14664 20.4847 5.97444 20.6577 5.76249 20.6577Z" fill="#5E9EA7"/>
<path d="M4.69608 21.729C4.48471 21.729 4.3125 21.556 4.3125 21.343C4.3125 21.1306 4.48471 20.9576 4.69608 20.9576C4.90803 20.9576 5.08023 21.1306 5.08023 21.343C5.08023 21.556 4.90803 21.729 4.69608 21.729Z" fill="#5E9EA7"/>
<path d="M3.78983 22.9663C3.57788 22.9663 3.40625 22.7933 3.40625 22.5809C3.40625 22.3685 3.57788 22.1955 3.78983 22.1955C4.0012 22.1955 4.17341 22.3685 4.17341 22.5809C4.17341 22.7933 4.0012 22.9663 3.78983 22.9663Z" fill="#5E9EA7"/>
<path d="M3.22147 24.314C3.00952 24.314 2.83789 24.1415 2.83789 23.9285C2.83789 23.7161 3.00952 23.5431 3.22147 23.5431C3.43284 23.5431 3.60505 23.7161 3.60505 23.9285C3.60505 24.1415 3.43284 24.314 3.22147 24.314Z" fill="#5E9EA7"/>
<path d="M2.86658 25.8145C2.65463 25.8145 2.48242 25.6414 2.48242 25.4285C2.48242 25.2161 2.65463 25.043 2.86658 25.043C3.07795 25.043 3.25016 25.2161 3.25016 25.4285C3.25016 25.6414 3.07795 25.8145 2.86658 25.8145Z" fill="#5E9EA7"/>
<path d="M6.87608 26.4122C6.68256 26.4984 6.45506 26.4104 6.36924 26.2166C6.28285 26.0221 6.3704 25.7935 6.56392 25.7073C6.75686 25.6211 6.98436 25.7085 7.07017 25.9029C7.15657 26.0968 7.06902 26.3254 6.87608 26.4122Z" fill="#5E9EA7"/>
<path d="M6.33508 27.8259C6.14156 27.9127 5.91406 27.8247 5.82824 27.6309C5.74185 27.4364 5.82939 27.2078 6.02233 27.1216C6.21585 27.0348 6.44335 27.1228 6.52917 27.3172C6.61556 27.5111 6.52802 27.7397 6.33508 27.8259Z" fill="#5E9EA7"/>
<path d="M6.00864 29.3269C5.81512 29.4137 5.5882 29.3257 5.50181 29.1313C5.41599 28.9374 5.50296 28.7088 5.69648 28.6226C5.89 28.5358 6.11692 28.6237 6.20331 28.8176C6.28913 29.0121 6.20216 29.2407 6.00864 29.3269Z" fill="#5E9EA7"/>
<path d="M6.03599 30.7907C5.84247 30.8775 5.61497 30.7896 5.52915 30.5957C5.44334 30.4013 5.53031 30.1733 5.72383 30.0864C5.91677 30.0002 6.14427 30.0876 6.23008 30.2821C6.31648 30.4759 6.22893 30.7045 6.03599 30.7907Z" fill="#5E9EA7"/>
<path d="M6.31723 32.3066C6.12372 32.3929 5.8968 32.3055 5.8104 32.111C5.72459 31.9166 5.81156 31.6886 6.00508 31.6017C6.19859 31.5155 6.42551 31.6029 6.5119 31.7974C6.59772 31.9918 6.51075 32.2198 6.31723 32.3066Z" fill="#5E9EA7"/>
<path d="M10.2234 31.2132C10.0817 31.3712 9.83865 31.3845 9.68142 31.2421C9.52418 31.0997 9.51151 30.8555 9.65319 30.6975C9.7943 30.5395 10.0379 30.5268 10.1952 30.6692C10.3524 30.811 10.3651 31.0552 10.2234 31.2132Z" fill="#5E9EA7"/>
<path d="M10.3015 32.7267C10.1598 32.8847 9.91677 32.8974 9.75954 32.755C9.60231 32.6127 9.58964 32.3684 9.73132 32.2104C9.87243 32.0525 10.1161 32.0397 10.2733 32.1815C10.4305 32.3239 10.4432 32.5681 10.3015 32.7267Z" fill="#5E9EA7"/>
<path d="M10.6098 34.2311C10.4687 34.3891 10.2257 34.4018 10.0685 34.2594C9.91122 34.1171 9.89797 33.8728 10.0397 33.7148C10.1813 33.5569 10.4244 33.5441 10.5816 33.6865C10.7389 33.8289 10.7515 34.0731 10.6098 34.2311Z" fill="#5E9EA7"/>
<path d="M11.2273 35.5577C11.0856 35.7157 10.8426 35.7284 10.6853 35.5861C10.5281 35.4437 10.5154 35.1995 10.6571 35.0415C10.7988 34.8835 11.0418 34.8708 11.1991 35.0131C11.3563 35.1555 11.369 35.3997 11.2273 35.5577Z" fill="#5E9EA7"/>
<path d="M12.0985 36.8262C11.9568 36.9848 11.7137 36.9975 11.5565 36.8552C11.3993 36.7128 11.3866 36.4686 11.5277 36.3106C11.67 36.1526 11.9124 36.1399 12.0697 36.2822C12.2275 36.424 12.2401 36.6683 12.0985 36.8262Z" fill="#5E9EA7"/>
<path d="M15.2236 34.2321C15.1579 34.4341 14.9408 34.5452 14.7398 34.4798C14.5388 34.4138 14.4282 34.1962 14.4933 33.9937C14.5589 33.7911 14.7755 33.6806 14.9771 33.746C15.1781 33.8119 15.2887 34.0295 15.2236 34.2321Z" fill="#5E9EA7"/>
<path d="M15.9069 35.5816C15.8418 35.7842 15.6247 35.8947 15.4231 35.8293C15.2221 35.7634 15.1115 35.5458 15.1771 35.3432C15.2422 35.1412 15.4594 35.0301 15.6604 35.0961C15.8619 35.1615 15.9725 35.3797 15.9069 35.5816Z" fill="#5E9EA7"/>
<path d="M16.7994 36.83C16.7338 37.0325 16.5172 37.1436 16.3157 37.0777C16.1146 37.0123 16.0041 36.7941 16.0697 36.5921C16.1348 36.3896 16.3519 36.2784 16.5529 36.3444C16.7545 36.4098 16.8645 36.628 16.7994 36.83Z" fill="#5E9EA7"/>
<path d="M17.901 37.7902C17.8359 37.9922 17.6188 38.1033 17.4172 38.0379C17.2162 37.9719 17.1056 37.7543 17.1713 37.5518C17.2364 37.3498 17.4535 37.2387 17.6545 37.3041C17.8561 37.37 17.9667 37.5876 17.901 37.7902Z" fill="#5E9EA7"/>
<path d="M19.2096 38.5937C19.1439 38.7957 18.9274 38.9068 18.7258 38.8408C18.5248 38.7754 18.4142 38.5573 18.4799 38.3553C18.545 38.1527 18.7621 38.0416 18.9631 38.1076C19.1647 38.173 19.2747 38.3912 19.2096 38.5937Z" fill="#5E9EA7"/>
<path d="M21.0133 34.9458C21.0357 35.1576 20.8825 35.3474 20.6717 35.37C20.4615 35.392 20.272 35.238 20.2501 35.0268C20.2282 34.815 20.3814 34.6252 20.5917 34.6032C20.8019 34.5806 20.9914 34.7345 21.0133 34.9458Z" fill="#5E9EA7"/>
<path d="M22.1857 35.8994C22.2076 36.1106 22.0544 36.301 21.8442 36.323C21.6334 36.3456 21.4445 36.1916 21.422 35.9798C21.4001 35.7686 21.5533 35.5782 21.7635 35.5562C21.9743 35.5336 22.1632 35.6876 22.1857 35.8994Z" fill="#5E9EA7"/>
<path d="M23.5056 36.6757C23.5274 36.8876 23.3742 37.0774 23.164 37.0994C22.9538 37.1219 22.7643 36.968 22.7424 36.7562C22.72 36.545 22.8732 36.3546 23.084 36.3326C23.2942 36.3106 23.4837 36.4639 23.5056 36.6757Z" fill="#5E9EA7"/>
<path d="M24.8986 37.1025C24.9205 37.3143 24.7673 37.5041 24.5571 37.5267C24.3463 37.5487 24.1574 37.3948 24.1349 37.1835C24.113 36.9717 24.2662 36.7819 24.4764 36.7593C24.6872 36.7373 24.8761 36.8913 24.8986 37.1025Z" fill="#5E9EA7"/>
<path d="M26.4195 37.3012C26.442 37.513 26.2888 37.7029 26.078 37.7249C25.8678 37.7474 25.6783 37.5935 25.6564 37.3817C25.6345 37.1704 25.7877 36.9806 25.9979 36.9581C26.2081 36.9361 26.3976 37.09 26.4195 37.3012Z" fill="#5E9EA7"/>
<path d="M26.5933 33.2315C26.6987 33.4161 26.6359 33.6522 26.4527 33.7587C26.2696 33.8646 26.034 33.8015 25.9281 33.6175C25.8227 33.4335 25.8854 33.1968 26.0692 33.0909C26.2523 32.9844 26.4873 33.0474 26.5933 33.2315Z" fill="#5E9EA7"/>
<path d="M28.0481 33.6243C28.154 33.8083 28.0907 34.0444 27.9075 34.1509C27.7244 34.2574 27.4894 34.1943 27.3834 34.0097C27.2774 33.8257 27.3408 33.5895 27.5239 33.483C27.7071 33.3766 27.9421 33.4402 28.0481 33.6243Z" fill="#5E9EA7"/>
<path d="M29.5697 33.7937C29.6756 33.9777 29.6123 34.2144 29.4291 34.3203C29.246 34.4268 29.011 34.3637 28.905 34.1791C28.799 33.9951 28.8618 33.759 29.0456 33.6525C29.2287 33.546 29.4637 33.6097 29.5697 33.7937Z" fill="#5E9EA7"/>
<path d="M31.015 33.6143C31.1204 33.7989 31.0576 34.035 30.8745 34.1415C30.6913 34.2474 30.4557 34.1843 30.3503 34.0003C30.2444 33.8157 30.3072 33.5796 30.4903 33.4731C30.674 33.3672 30.909 33.4303 31.015 33.6143Z" fill="#5E9EA7"/>
<path d="M32.4853 33.174C32.5913 33.3587 32.5285 33.5948 32.3448 33.7007C32.1616 33.8072 31.9266 33.7441 31.8207 33.56C31.7153 33.3754 31.778 33.1393 31.9612 33.0328C32.1443 32.9269 32.3799 32.99 32.4853 33.174Z" fill="#5E9EA7"/>
<path d="M30.9942 29.3861C31.1652 29.5111 31.2033 29.7524 31.0788 29.9243C30.9544 30.0968 30.7143 30.135 30.5426 30.01C30.3716 29.885 30.3336 29.6431 30.458 29.4712C30.5824 29.2993 30.8226 29.2611 30.9942 29.3861Z" fill="#5E9EA7"/>
<path d="M32.482 29.1488C32.6531 29.2738 32.6911 29.5157 32.5673 29.6876C32.4429 29.8594 32.2021 29.8976 32.031 29.7726C31.86 29.6476 31.822 29.4063 31.9458 29.2344C32.0702 29.062 32.311 29.0238 32.482 29.1488Z" fill="#5E9EA7"/>
<path d="M33.9414 28.683C34.1125 28.808 34.1505 29.0493 34.0267 29.2212C33.9022 29.3937 33.6615 29.4319 33.4904 29.3068C33.3188 29.1818 33.2808 28.9399 33.4052 28.7681C33.5302 28.5962 33.7704 28.558 33.9414 28.683Z" fill="#5E9EA7"/>
<path d="M35.1914 27.9281C35.3625 28.0531 35.4005 28.2944 35.2761 28.4663C35.1517 28.6388 34.9115 28.677 34.7404 28.552C34.5688 28.427 34.5308 28.1851 34.6552 28.0132C34.7796 27.8413 35.0204 27.8031 35.1914 27.9281Z" fill="#5E9EA7"/>
<path d="M36.3532 26.9247C36.5243 27.0497 36.5629 27.291 36.4385 27.4634C36.3141 27.6353 36.0733 27.6735 35.9023 27.5485C35.7312 27.4235 35.6926 27.1822 35.8176 27.0097C35.9414 26.8378 36.1822 26.7997 36.3532 26.9247Z" fill="#5E9EA7"/>
<path d="M33.4596 24.0729C33.6664 24.1174 33.7989 24.3223 33.7551 24.5307C33.7113 24.7384 33.5069 24.8715 33.3001 24.8275C33.0928 24.783 32.9603 24.5781 33.0046 24.3703C33.0484 24.162 33.2529 24.0289 33.4596 24.0729Z" fill="#5E9EA7"/>
<path d="M34.7251 23.2481C34.9324 23.2921 35.0649 23.4975 35.0211 23.7053C34.9768 23.913 34.7729 24.0467 34.5655 24.0022C34.3588 23.9582 34.2263 23.7527 34.2701 23.545C34.3139 23.3372 34.5183 23.2035 34.7251 23.2481Z" fill="#5E9EA7"/>
<path d="M35.8679 22.2271C36.0746 22.2711 36.2071 22.4765 36.1633 22.6843C36.1195 22.8921 35.9151 23.0257 35.7083 22.9812C35.501 22.9372 35.3685 22.7317 35.4129 22.524C35.4566 22.3162 35.6605 22.1831 35.8679 22.2271Z" fill="#5E9EA7"/>
<path d="M36.7022 21.0274C36.909 21.0714 37.0414 21.2762 36.9977 21.4846C36.9533 21.6923 36.7494 21.826 36.5427 21.7815C36.3353 21.7375 36.2029 21.532 36.2466 21.3243C36.291 21.1159 36.4949 20.9828 36.7022 21.0274Z" fill="#5E9EA7"/>
<path d="M37.36 19.6339C37.5673 19.6785 37.6998 19.8834 37.6555 20.0917C37.6117 20.2994 37.4072 20.4326 37.2005 20.3886C36.9937 20.344 36.8607 20.1392 36.905 19.9308C36.9488 19.7231 37.1532 19.5899 37.36 19.6339Z" fill="#5E9EA7"/>
<path d="M33.5616 18.2124C33.7684 18.1679 33.9729 18.3016 34.0166 18.5093C34.061 18.7171 33.9285 18.9225 33.7212 18.9665C33.5144 19.0111 33.3099 18.878 33.2662 18.6696C33.2224 18.4619 33.3549 18.2564 33.5616 18.2124Z" fill="#5E9EA7"/>
<path d="M34.3841 16.9411C34.5909 16.8971 34.7953 17.0302 34.8391 17.2385C34.8829 17.4463 34.7504 17.6517 34.5436 17.6957C34.3363 17.7397 34.1324 17.6066 34.0886 17.3988C34.0443 17.1905 34.1768 16.9856 34.3841 16.9411Z" fill="#5E9EA7"/>
<path d="M35.013 15.5416C35.2197 15.4977 35.4242 15.6308 35.468 15.8391C35.5123 16.0469 35.3793 16.2517 35.1725 16.2963C34.9657 16.3403 34.7613 16.2072 34.7175 15.9994C34.6732 15.7911 34.8062 15.5862 35.013 15.5416Z" fill="#5E9EA7"/>
<path d="M35.2901 14.1045C35.4975 14.06 35.7014 14.1937 35.7457 14.4014C35.7895 14.6092 35.657 14.8146 35.4497 14.8586C35.2429 14.9032 35.0385 14.7695 34.9947 14.5617C34.9509 14.354 35.0834 14.1485 35.2901 14.1045Z" fill="#5E9EA7"/>
<path d="M35.3273 12.5635C35.5346 12.519 35.7385 12.6527 35.7823 12.8604C35.8266 13.0682 35.6941 13.2736 35.4868 13.3176C35.28 13.3622 35.0756 13.2285 35.0318 13.0207C34.988 12.813 35.1205 12.6075 35.3273 12.5635Z" fill="#5E9EA7"/>
<path d="M31.2834 12.8163C31.4545 12.6912 31.6946 12.7294 31.8196 12.9019C31.9434 13.0738 31.9054 13.3151 31.7344 13.4401C31.5633 13.5651 31.3226 13.5269 31.1982 13.355C31.0738 13.1832 31.1118 12.9413 31.2834 12.8163Z" fill="#5E9EA7"/>
<path d="M31.5192 11.3202C31.6908 11.1952 31.931 11.2334 32.0554 11.4053C32.1798 11.5771 32.1418 11.8191 31.9707 11.9441C31.7991 12.0691 31.5589 12.0309 31.4345 11.8584C31.3101 11.6865 31.3481 11.4452 31.5192 11.3202Z" fill="#5E9EA7"/>
<path d="M31.5251 9.78357C31.6961 9.65857 31.9369 9.69677 32.0613 9.86865C32.1857 10.0405 32.1471 10.2824 31.976 10.4074C31.805 10.5324 31.5642 10.4942 31.4404 10.3218C31.316 10.1499 31.354 9.90858 31.5251 9.78357Z" fill="#5E9EA7"/>
<path d="M31.1994 8.35727C31.3705 8.23227 31.6107 8.27047 31.7351 8.44292C31.8595 8.6148 31.8215 8.85612 31.6504 8.98113C31.4788 9.10613 31.2386 9.06794 31.1142 8.89606C30.9898 8.7236 31.0278 8.48228 31.1994 8.35727Z" fill="#5E9EA7"/>
<path d="M30.6096 6.93393C30.7806 6.80892 31.0208 6.84713 31.1452 7.019C31.2696 7.19146 31.2316 7.43278 31.0606 7.55779C30.8895 7.68279 30.6487 7.6446 30.5243 7.47272C30.3999 7.30026 30.438 7.05893 30.6096 6.93393Z" fill="#5E9EA7"/>
<path d="M27.016 8.81898C27.1219 8.63437 27.3569 8.57128 27.5407 8.67777C27.7238 8.78367 27.7866 9.02037 27.6806 9.2044C27.5752 9.38843 27.3396 9.45151 27.1565 9.34561C26.9733 9.23912 26.9106 9.00301 27.016 8.81898Z" fill="#5E9EA7"/>
<path d="M26.6236 7.3557C26.7296 7.17167 26.9646 7.10859 27.1478 7.2145C27.3309 7.32098 27.3943 7.5571 27.2883 7.74113C27.1823 7.92574 26.9473 7.98882 26.7642 7.88233C26.581 7.77643 26.5177 7.53973 26.6236 7.3557Z" fill="#5E9EA7"/>
<path d="M26.0101 5.94797C26.1161 5.76394 26.3511 5.70085 26.5342 5.80676C26.7179 5.91324 26.7807 6.14936 26.6748 6.33397C26.5694 6.518 26.3338 6.58108 26.1506 6.4746C25.9675 6.36869 25.9047 6.132 26.0101 5.94797Z" fill="#5E9EA7"/>
<path d="M25.1335 4.77965C25.2389 4.59562 25.4745 4.53196 25.6576 4.63845C25.8408 4.74493 25.9036 4.98104 25.7982 5.16507C25.6922 5.3491 25.4572 5.41277 25.2741 5.30629C25.0903 5.19981 25.0276 4.96368 25.1335 4.77965Z" fill="#5E9EA7"/>
<path d="M24.0182 3.72082C24.1241 3.53621 24.3591 3.47314 24.5423 3.57962C24.7254 3.6861 24.7888 3.92223 24.6828 4.10626C24.5768 4.29029 24.3419 4.35337 24.1587 4.24746C23.9755 4.14098 23.9122 3.90486 24.0182 3.72082Z" fill="#5E9EA7"/>
<path d="M21.4983 6.91063C21.5202 6.69939 21.7096 6.54545 21.9199 6.56744C22.1307 6.59001 22.2839 6.77983 22.2614 6.99164C22.2395 7.20287 22.05 7.35681 21.8398 7.33482C21.629 7.31225 21.4758 7.12244 21.4983 6.91063Z" fill="#5E9EA7"/>
<path d="M20.549 5.73336C20.5714 5.52213 20.7603 5.36819 20.9711 5.39018C21.1813 5.41217 21.3345 5.60258 21.3127 5.81381C21.2902 6.02562 21.1013 6.17955 20.8905 6.15698C20.6803 6.13499 20.5271 5.94517 20.549 5.73336Z" fill="#5E9EA7"/>
<path d="M19.4201 4.6987C19.4419 4.48689 19.6314 4.33352 19.8417 4.35552C20.0525 4.37751 20.2056 4.56791 20.1832 4.77914C20.1613 4.99095 19.9718 5.14489 19.7616 5.12232C19.5508 5.10032 19.3982 4.90994 19.4201 4.6987Z" fill="#5E9EA7"/>
<path d="M18.1448 3.98982C18.1667 3.77801 18.3561 3.62406 18.5664 3.64663C18.7766 3.66862 18.9298 3.85844 18.9079 4.07025C18.8854 4.28206 18.6965 4.43542 18.4863 4.41343C18.2755 4.39144 18.1223 4.20105 18.1448 3.98982Z" fill="#5E9EA7"/>
<path d="M16.6974 3.4775C16.7199 3.26627 16.9088 3.11233 17.119 3.13432C17.3298 3.15689 17.483 3.34672 17.4605 3.55795C17.4386 3.76976 17.2497 3.92369 17.0389 3.90112C16.8287 3.87913 16.6755 3.68931 16.6974 3.4775Z" fill="#5E9EA7"/>
<path d="M15.6886 7.42203C15.6235 7.21948 15.7341 7.00188 15.9351 6.9359C16.1367 6.87051 16.3532 6.98162 16.4189 7.1836C16.484 7.38557 16.3734 7.60375 16.1724 7.66972C15.9714 7.73512 15.7542 7.624 15.6886 7.42203Z" fill="#5E9EA7"/>
<path d="M14.3432 6.73434C14.2775 6.53179 14.3881 6.31361 14.5897 6.24822C14.7907 6.18224 15.0078 6.29336 15.0729 6.49591C15.1385 6.69788 15.028 6.91606 14.8269 6.98146C14.6254 7.04743 14.4082 6.93631 14.3432 6.73434Z" fill="#5E9EA7"/>
<path d="M12.892 6.25108C12.8263 6.0491 12.9369 5.83093 13.1385 5.76553C13.3395 5.69956 13.5566 5.81067 13.6217 6.01265C13.6874 6.2152 13.5768 6.4328 13.3752 6.49877C13.1742 6.56416 12.9571 6.45363 12.892 6.25108Z" fill="#5E9EA7"/>
<path d="M11.4408 6.12412C11.3752 5.92157 11.4857 5.70398 11.6867 5.63801C11.8883 5.57261 12.1049 5.68372 12.1705 5.88569C12.2356 6.08824 12.1256 6.30584 11.924 6.37182C11.723 6.43721 11.5059 6.32667 11.4408 6.12412Z" fill="#5E9EA7"/>
<path d="M9.91124 6.24771C9.84616 6.04516 9.95675 5.82756 10.1578 5.76159C10.3593 5.69619 10.5759 5.80731 10.6415 6.00928C10.7066 6.21183 10.596 6.42943 10.395 6.4954C10.1935 6.5608 9.9769 6.44968 9.91124 6.24771Z" fill="#5E9EA7"/>
<path d="M10.5843 10.2643C10.4432 10.1063 10.4559 9.86205 10.6131 9.71969C10.7704 9.57732 11.0134 9.59006 11.1551 9.74805C11.2968 9.90604 11.2841 10.1508 11.1269 10.2926C10.9691 10.435 10.726 10.4223 10.5843 10.2643Z" fill="#5E9EA7"/>
<path d="M9.07849 10.1847C8.93738 10.0267 8.95005 9.78246 9.10729 9.6401C9.26452 9.49774 9.50757 9.51047 9.64925 9.66846C9.79094 9.82702 9.77768 10.0707 9.62103 10.213C9.46322 10.3554 9.22017 10.3427 9.07849 10.1847Z" fill="#5E9EA7"/>
<path d="M7.55723 10.3365C7.41555 10.1785 7.4288 9.93432 7.58603 9.79195C7.74326 9.64959 7.98632 9.66232 8.128 9.82031C8.26968 9.9783 8.25643 10.2231 8.0992 10.3649C7.94197 10.5073 7.69892 10.4945 7.55723 10.3365Z" fill="#5E9EA7"/>
<path d="M6.18054 10.8141C6.03885 10.6561 6.05153 10.4119 6.20876 10.2695C6.366 10.1271 6.60904 10.1399 6.75072 10.2979C6.89241 10.4558 6.87974 10.7001 6.7225 10.8424C6.56527 10.9848 6.32222 10.9721 6.18054 10.8141Z" fill="#5E9EA7"/>
<path d="M4.83282 11.552C4.69114 11.394 4.70381 11.1498 4.86162 11.0075C5.01885 10.8657 5.2619 10.8784 5.40358 11.0364C5.54469 11.1944 5.53202 11.4386 5.37478 11.581C5.21755 11.7233 4.97451 11.71 4.83282 11.552Z" fill="#5E9EA7"/>
<path d="M7.07539 14.9458C6.88187 14.8596 6.7949 14.631 6.88072 14.4365C6.96711 14.2426 7.19461 14.1547 7.38755 14.2409C7.58107 14.3277 7.66804 14.5563 7.58222 14.7502C7.49583 14.9446 7.26891 15.032 7.07539 14.9458Z" fill="#5E9EA7"/>
<path d="M5.66686 15.489C5.47392 15.4028 5.38638 15.1742 5.47277 14.9797C5.55859 14.7858 5.78608 14.6979 5.97902 14.7847C6.17254 14.8709 6.26009 15.0995 6.17369 15.2934C6.08788 15.4878 5.86038 15.5758 5.66686 15.489Z" fill="#5E9EA7"/>
<path d="M4.33883 16.2495C4.14531 16.1627 4.05834 15.9347 4.14473 15.7402C4.23055 15.5464 4.45748 15.4584 4.65099 15.5452C4.84451 15.6314 4.93148 15.86 4.84566 16.0539C4.75927 16.2483 4.53235 16.3357 4.33883 16.2495Z" fill="#5E9EA7"/>
<path d="M3.27461 17.2483C3.08109 17.162 2.99412 16.9334 3.07994 16.7396C3.16633 16.5451 3.39325 16.4577 3.58677 16.544C3.78029 16.6302 3.86726 16.8588 3.78144 17.0532C3.69505 17.2471 3.46812 17.3351 3.27461 17.2483Z" fill="#5E9EA7"/>
<path d="M2.34069 18.4731C2.14775 18.3863 2.06021 18.1583 2.1466 17.9639C2.23242 17.7694 2.45991 17.682 2.65285 17.7683C2.84637 17.8551 2.93334 18.0831 2.84752 18.2775C2.76113 18.472 2.53421 18.5594 2.34069 18.4731Z" fill="#5E9EA7"/>
<path d="M35.99 8.66152C34.2886 6.00463 29.8654 3.25745 29.4795 3.12724C28.964 2.95304 27.906 3.02655 26.0117 2.34077C24.0402 1.62663 23.9435 0.984827 22.8872 0.984827C21.8309 0.984827 19.7898 0.984827 19.7898 0.984827C19.7898 0.984827 17.748 0.984827 16.6923 0.984827C15.636 0.984827 15.5387 1.62663 13.5672 2.34077C11.6735 3.02655 10.6155 2.95304 10.0994 3.12724C9.71356 3.25745 5.29086 6.00463 3.58951 8.66152C3.37814 8.99196 4.31982 9.15285 4.31982 9.68816C4.31982 10.2241 3.87345 10.518 3.71392 10.6789C3.5538 10.8398 3.85388 11.0244 3.85388 11.0244H12.4378C12.4378 11.0244 15.5963 8.76858 19.7898 8.76858C24.1249 8.76858 27.1417 11.0244 27.1417 11.0244H35.7251C35.7251 11.0244 36.0251 10.8398 35.8656 10.6789C35.7055 10.518 35.2591 10.2241 35.2591 9.68816C35.2591 9.15285 36.2014 8.99196 35.99 8.66152Z" fill="#415F79"/>
<path d="M27.7754 9.24219C26.5342 8.48465 23.5969 6.98577 19.791 6.98577C16.0733 6.98577 13.0709 8.50027 11.8234 9.24219C11.8234 9.24219 10.0287 5.96491 10.8247 5.51815C10.8996 5.50715 10.9957 5.49441 11.0793 5.48284C11.7255 5.39719 12.8071 5.25367 14.2913 4.71604C15.4271 4.30457 16.086 3.89427 16.522 3.62285C16.5963 3.57655 16.6832 3.52214 16.7443 3.48684H22.8378C22.8983 3.52214 22.9858 3.57655 23.0601 3.62285C23.4961 3.89427 24.155 4.30457 25.2902 4.71604C26.775 5.25367 27.8566 5.39719 28.5028 5.48284C28.5863 5.49441 28.6825 5.50657 28.7568 5.51815C29.5533 5.96491 27.7754 9.24219 27.7754 9.24219Z" fill="#F49A22"/>
<path d="M17.38 2.3746C17.38 2.86246 16.9861 3.2583 16.5006 3.2583C16.015 3.2583 15.6211 2.86246 15.6211 2.3746C15.6211 1.88616 16.015 1.4909 16.5006 1.4909C16.9861 1.4909 17.38 1.88616 17.38 2.3746Z" fill="#46483C"/>
<path d="M17.3153 2.37438C17.3153 2.82693 16.9495 3.19385 16.4991 3.19385C16.0487 3.19385 15.6836 2.82693 15.6836 2.37438C15.6836 1.92124 16.0487 1.55434 16.4991 1.55434C16.9495 1.55434 17.3153 1.92124 17.3153 2.37438Z" fill="#B0D2D3"/>
<path d="M16.9451 2.37443C16.9451 2.62154 16.7458 2.82178 16.4999 2.82178C16.254 2.82178 16.0547 2.62154 16.0547 2.37443C16.0547 2.12732 16.254 1.92708 16.4999 1.92708C16.7458 1.92708 16.9451 2.12732 16.9451 2.37443Z" fill="#46483C"/>
<path d="M11.3664 4.38934C11.3664 4.8772 10.9724 5.27246 10.4869 5.27246C10.0008 5.27246 9.60742 4.8772 9.60742 4.38934C9.60742 3.9009 10.0008 3.50506 10.4869 3.50506C10.9724 3.50506 11.3664 3.9009 11.3664 4.38934Z" fill="#46483C"/>
<path d="M11.3035 4.38953C11.3035 4.84208 10.9384 5.20898 10.488 5.20898C10.037 5.20898 9.67188 4.84208 9.67188 4.38953C9.67188 3.93639 10.037 3.56949 10.488 3.56949C10.9384 3.56949 11.3035 3.93639 11.3035 4.38953Z" fill="#B0D2D3"/>
<path d="M10.9314 4.38966C10.9314 4.63619 10.7322 4.83643 10.4862 4.83643C10.2403 4.83643 10.041 4.63619 10.041 4.38966C10.041 4.14255 10.2403 3.94173 10.4862 3.94173C10.7322 3.94173 10.9314 4.14255 10.9314 4.38966Z" fill="#46483C"/>
<path d="M22.1992 2.3746C22.1992 2.86246 22.5932 3.2583 23.0787 3.2583C23.5648 3.2583 23.9582 2.86246 23.9582 2.3746C23.9582 1.88616 23.5648 1.4909 23.0787 1.4909C22.5932 1.4909 22.1992 1.88616 22.1992 2.3746Z" fill="#46483C"/>
<path d="M22.2637 2.37438C22.2637 2.82693 22.6288 3.19385 23.0792 3.19385C23.5302 3.19385 23.8953 2.82693 23.8953 2.37438C23.8953 1.92124 23.5302 1.55434 23.0792 1.55434C22.6288 1.55434 22.2637 1.92124 22.2637 2.37438Z" fill="#B0D2D3"/>
<path d="M22.6367 2.37443C22.6367 2.62154 22.836 2.82178 23.0813 2.82178C23.3273 2.82178 23.5266 2.62154 23.5266 2.37443C23.5266 2.12732 23.3273 1.92708 23.0813 1.92708C22.836 1.92708 22.6367 2.12732 22.6367 2.37443Z" fill="#46483C"/>
<path d="M28.2148 4.38934C28.2148 4.8772 28.6082 5.27246 29.0943 5.27246C29.5798 5.27246 29.9738 4.8772 29.9738 4.38934C29.9738 3.9009 29.5798 3.50506 29.0943 3.50506C28.6082 3.50506 28.2148 3.9009 28.2148 4.38934Z" fill="#46483C"/>
<path d="M28.2773 4.38953C28.2773 4.84208 28.6431 5.20898 29.0935 5.20898C29.5439 5.20898 29.909 4.84208 29.909 4.38953C29.909 3.93639 29.5439 3.56949 29.0935 3.56949C28.6431 3.56949 28.2773 3.93639 28.2773 4.38953Z" fill="#B0D2D3"/>
<path d="M28.6484 4.38966C28.6484 4.63619 28.8477 4.83643 29.0936 4.83643C29.3396 4.83643 29.5388 4.63619 29.5388 4.38966C29.5388 4.14255 29.3396 3.94173 29.0936 3.94173C28.8477 3.94173 28.6484 4.14255 28.6484 4.38966Z" fill="#46483C"/>
</svg>
