<svg width="39" height="40" viewBox="0 0 39 40" fill="none" xmlns="http://www.w3.org/2000/svg">
<path d="M22.5853 36.1895H16.957V28.6935H22.5853V36.1895Z" fill="#0F3858"/>
<path d="M22.5853 37.1221H16.957V36.1897H22.5853V37.1221Z" fill="#0F3858"/>
<path d="M24.4909 28.2549H15.0508V26.198H24.4909V28.2549Z" fill="#B0D2D3"/>
<path d="M23.9308 25.7593H15.6133V24.3057H23.9308V25.7593Z" fill="#E75643"/>
<path d="M23.9308 20.1641H15.6133V20.135C15.6133 19.4849 16.1392 18.9575 16.7888 18.9575H22.7548C23.4043 18.9575 23.9308 19.4849 23.9308 20.135V20.1641Z" fill="#5E9EA7"/>
<path d="M21.1459 37.5264H18.3926V37.1218H21.1459V37.5264Z" fill="#5E9EA7"/>
<path d="M20.4484 38.1094H19.0918V37.5265H20.4484V38.1094Z" fill="#B0D2D3"/>
<path d="M23.9069 25.7595H15.6337L15.0762 26.1982H24.4644L23.9069 25.7595Z" fill="#B0D2D3"/>
<path d="M23.9069 28.6938H15.6337L15.0762 28.2552H24.4644L23.9069 28.6938Z" fill="#292E30"/>
<path d="M22.8495 35.765L16.7217 36.1895L16.5859 35.9943L16.6943 35.789L22.822 35.3645L22.9537 35.5485L22.8495 35.765Z" fill="#5E9EA7"/>
<path d="M22.8495 34.9403L16.7217 35.3647L16.5859 35.1696L16.6943 34.9643L22.822 34.5399L22.9537 34.7238L22.8495 34.9403Z" fill="#5E9EA7"/>
<path d="M22.8495 34.1151L16.7217 34.54L16.5859 34.3449L16.6943 34.1396L22.822 33.7151L22.9537 33.8991L22.8495 34.1151Z" fill="#5E9EA7"/>
<path d="M22.8495 33.2899L16.7217 33.7148L16.5859 33.5197L16.6943 33.3144L22.822 32.8899L22.9537 33.0739L22.8495 33.2899Z" fill="#5E9EA7"/>
<path d="M22.8495 32.4657L16.7217 32.8901L16.5859 32.695L16.6943 32.4897L22.822 32.0652L22.9537 32.2492L22.8495 32.4657Z" fill="#5E9EA7"/>
<path d="M22.8495 31.64L16.7217 32.0649L16.5859 31.8698L16.6943 31.6645L22.822 31.24L22.9537 31.424L22.8495 31.64Z" fill="#5E9EA7"/>
<path d="M22.8495 30.8153L16.7217 31.2402L16.5859 31.0451L16.6943 30.8398L22.822 30.4153L22.9537 30.5993L22.8495 30.8153Z" fill="#5E9EA7"/>
<path d="M22.8495 29.9906L16.7217 30.4155L16.5859 30.2204L16.6943 30.015L22.822 29.5906L22.9537 29.7746L22.8495 29.9906Z" fill="#5E9EA7"/>
<path d="M22.8495 29.1654L16.7217 29.5903L16.5859 29.3952L16.6943 29.1899L22.822 28.7649L22.9537 28.9494L22.8495 29.1654Z" fill="#5E9EA7"/>
<path d="M18.6129 38.5996C18.1989 38.5996 17.8637 38.2639 17.8637 37.8491V37.122H17.2441V38.0427C17.2441 38.6929 17.7706 39.2202 18.4196 39.2202H20.7218V38.5996H18.6129Z" fill="#5E9EA7"/>
<path d="M14.0391 22.9203V23.2219L15.6342 24.3057H23.9074L25.5025 23.2219V22.9203H14.0391Z" fill="#0F3858"/>
<path d="M22.7253 13.927C20.7563 13.9061 18.7873 13.9061 16.8184 13.927C16.9959 14.1593 16.9959 14.3916 16.8184 14.624C18.7873 14.6449 20.7563 14.6449 22.7253 14.624C22.5483 14.3916 22.5483 14.1593 22.7253 13.927Z" fill="#5E9EA7"/>
<path d="M22.7253 12.2649C20.7563 12.244 18.7873 12.244 16.8184 12.2649C16.9959 12.4972 16.9959 12.7295 16.8184 12.9619C18.7873 12.9828 20.7563 12.9828 22.7253 12.9619C22.5483 12.7295 22.5483 12.4972 22.7253 12.2649Z" fill="#5E9EA7"/>
<path d="M14.0391 21.5493V21.2477L15.6342 20.164H23.9074L25.5025 21.2477V21.5493H14.0391Z" fill="#B0D2D3"/>
<path d="M22.7253 10.6106C20.7563 10.5897 18.7873 10.5897 16.8184 10.6106C16.9959 10.8429 16.9959 11.0752 16.8184 11.3076C18.7873 11.3285 20.7563 11.3285 22.7253 11.3076C22.5483 11.0752 22.5483 10.8429 22.7253 10.6106Z" fill="#5E9EA7"/>
<path d="M22.7253 14.6241H16.8184V18.9575H22.7253V14.6241Z" fill="#B0D2D3"/>
<path d="M22.7253 8.95629C20.7563 8.9354 18.7873 8.9354 16.8184 8.95629C16.9959 9.18812 16.9959 9.42096 16.8184 9.65279C18.7873 9.67368 20.7563 9.67368 22.7253 9.65279C22.5483 9.42096 22.5483 9.18812 22.7253 8.95629Z" fill="#5E9EA7"/>
<path d="M22.7253 7.30196C20.7563 7.28107 18.7873 7.28107 16.8184 7.30196C16.9959 7.5343 16.9959 7.76664 16.8184 7.99898C18.7873 8.01987 20.7563 8.01987 22.7253 7.99898C22.5483 7.76664 22.5483 7.5343 22.7253 7.30196Z" fill="#5E9EA7"/>
<path d="M22.7239 12.9621C20.7549 12.9142 18.786 12.9142 16.817 12.9621C16.5219 13.2821 16.5219 13.6026 16.817 13.9231C18.786 13.971 20.7549 13.971 22.7239 13.9231C23.0195 13.6026 23.0195 13.2821 22.7239 12.9621Z" fill="#B0D2D3"/>
<path d="M22.7239 11.3068C20.7549 11.259 18.786 11.259 16.817 11.3068C16.5219 11.6273 16.5219 11.9473 16.817 12.2678C18.786 12.3157 20.7549 12.3157 22.7239 12.2678C23.0195 11.9473 23.0195 11.6273 22.7239 11.3068Z" fill="#B0D2D3"/>
<path d="M22.7239 9.65267C20.7549 9.60477 18.786 9.60477 16.817 9.65267C16.5219 9.97315 16.5219 10.2936 16.817 10.6136C18.786 10.662 20.7549 10.662 22.7239 10.6136C23.0195 10.2936 23.0195 9.97315 22.7239 9.65267Z" fill="#B0D2D3"/>
<path d="M22.7239 7.99827C20.7549 7.94986 18.786 7.94986 16.817 7.99827C16.5219 8.31824 16.5219 8.63871 16.817 8.9592C18.786 9.00709 20.7549 9.00709 22.7239 8.9592C23.0195 8.63871 23.0195 8.31824 22.7239 7.99827Z" fill="#B0D2D3"/>
<path d="M22.7253 7.30176C22.7253 7.30176 22.4771 6.32962 21.5264 6.32962C20.5763 6.32962 19.7721 6.32962 19.7721 6.32962C19.7721 6.32962 18.9674 6.32962 18.0172 6.32962C17.0666 6.32962 16.8184 7.30176 16.8184 7.30176L19.7721 7.28597L22.7253 7.30176Z" fill="#B0D2D3"/>
<path d="M22.6421 23.2221C20.7474 23.6154 18.7927 23.6154 16.8984 23.2221C16.8984 22.5643 16.8984 21.906 16.8984 21.2477C18.7927 20.8544 20.7474 20.8544 22.6421 21.2477C22.6421 21.906 22.6421 22.5643 22.6421 23.2221Z" fill="#B0D2D3"/>
<path d="M16.8992 23.2221C15.9557 23.6154 14.9826 23.6154 14.0391 23.2221C14.0391 22.5643 14.0391 21.906 14.0391 21.2477C14.9826 20.8544 15.9557 20.8544 16.8992 21.2477C16.8992 21.906 16.8992 22.5643 16.8992 23.2221Z" fill="#5E9EA7"/>
<path d="M22.6426 23.2221C23.5856 23.6154 24.5592 23.6154 25.5022 23.2221C25.5022 22.5643 25.5022 21.906 25.5022 21.2477C24.5592 20.8544 23.5856 20.8544 22.6426 21.2477C22.6426 21.906 22.6426 22.5643 22.6426 23.2221Z" fill="#5E9EA7"/>
<path d="M16.645 12.0098H22.8988C22.9619 11.8615 22.9619 11.7137 22.8988 11.5655H16.645C16.5819 11.7137 16.5819 11.8615 16.645 12.0098Z" fill="#F49A22"/>
<path d="M16.645 10.356H22.8988C22.9619 10.2077 22.9619 10.0594 22.8988 9.91115H16.645C16.5819 10.0594 16.5819 10.2077 16.645 10.356Z" fill="#F49A22"/>
<path d="M16.645 8.70117H22.8988C22.9619 8.5529 22.9619 8.40463 22.8988 8.25687H16.645C16.5819 8.40463 16.5819 8.5529 16.645 8.70117Z" fill="#F49A22"/>
<path d="M21.3511 5.95557H18.1914V4.3236H21.3511V5.95557Z" fill="#0F3858"/>
<path d="M21.1352 4.00879H18.4043V2.98722H21.1352V4.00879Z" fill="#0F3858"/>
<path d="M21.3517 1.5693H18.1914V2.40234H21.3517V1.5693Z" fill="#0F3858"/>
<path d="M21.3511 4.32373H18.1914L18.402 4.00886H21.1401L21.3511 4.32373Z" fill="#5E9EA7"/>
<path d="M21.3511 2.40239H18.1914L18.402 2.9873H21.1401L21.3511 2.40239Z" fill="#5E9EA7"/>
<path d="M21.3511 1.56934H18.1914L18.3226 1.20503C18.3704 1.07256 18.4956 0.984916 18.6355 0.984916H20.9066C21.047 0.984916 21.1721 1.07256 21.2194 1.20503L21.3511 1.56934Z" fill="#5E9EA7"/>
<path d="M21.5068 6.32959H18.0332V5.9556H21.5068V6.32959Z" fill="#5E9EA7"/>
</svg>
