<svg width="39" height="40" viewBox="0 0 39 40" fill="none" xmlns="http://www.w3.org/2000/svg">
<path d="M16.5449 15.3277V38.1646C16.5449 38.4563 20.4993 39.2202 25.3769 39.2202C30.2545 39.2202 34.2084 38.4563 34.2084 38.1646V15.3277H16.5449Z" fill="#415F79"/>
<path d="M16.5449 34.7228V35.8447C22.4206 36.3844 28.3332 36.3844 34.2084 35.8447V34.7228C28.3332 35.2697 22.4206 35.2697 16.5449 34.7228Z" fill="#0F3858"/>
<path d="M29.7004 13.0352C28.7403 12.717 28.477 11.8476 28.477 11.8476H25.3769H22.2763C22.2763 11.8476 22.013 12.717 21.0529 13.0352C19.8461 13.4352 16.5449 13.2943 16.5449 15.3276H25.3769H34.2084C34.2084 13.2943 30.9073 13.4352 29.7004 13.0352Z" fill="#0F3858"/>
<path d="M28.4763 11.8477H22.2756C22.2756 11.8477 22.0162 12.7 21.0781 13.0254H25.3763H29.6744C28.7358 12.7 28.4763 11.8477 28.4763 11.8477Z" fill="#415F79"/>
<path d="M28.4689 8.59186H22.2754V11.8477H28.4689V8.59186Z" fill="#F49A22"/>
<path d="M28.4689 8.59207H22.2754V9.20801H28.4689V8.59207Z" fill="#292E30"/>
<path d="M22.2755 8.94357H20.791V11.4956H22.2755V8.94357Z" fill="#292E30"/>
<path d="M20.791 9.5456H15.5625V10.8945H20.791V9.5456Z" fill="#5E9EA7"/>
<path d="M16.4334 8.94861H15.5625V11.4907H16.4334V8.94861Z" fill="#292E30"/>
<path d="M15.562 8.56757L2.33984 5.90396V14.5361L15.562 11.872V8.56757Z" fill="#E75643"/>
<path d="M22.2754 8.59198V7.0768C22.2754 7.0768 26.5454 7.0768 28.2998 7.0768C32.2774 7.0768 36.4648 9.31727 36.96 9.81387C37.4557 10.311 36.8146 12.0544 36.4136 11.6522C36.0126 11.2501 35.6507 10.4397 33.8957 9.81387C32.1408 9.18857 30.6458 8.59198 28.4689 8.59198C26.292 8.59198 22.2754 8.59198 22.2754 8.59198Z" fill="#5E9EA7"/>
<path d="M36.4 1.00617C35.9324 1.21165 22.6359 5.42419 22.3142 5.74679C21.9925 6.06938 22.2745 7.07694 22.2745 7.07694L24.8359 8.26569C24.9653 8.4187 25.1559 8.51758 25.3713 8.51758C25.5872 8.51758 25.7773 8.4187 25.9067 8.26569H25.9073V8.26512C25.9761 8.18337 26.0273 8.08724 26.0538 7.98008C26.3154 7.49453 26.8999 6.51958 27.568 6.10916C28.4747 5.5518 32.6566 4.05648 34.5724 3.10306C36.4876 2.14964 36.8682 0.800677 36.4 1.00617Z" fill="#B0D2D3"/>
<path d="M25.8094 7.81043C25.8094 8.05238 25.6133 8.24902 25.3715 8.24902C25.1297 8.24902 24.9336 8.05238 24.9336 7.81043C24.9336 7.56793 25.1297 7.3713 25.3715 7.3713C25.6133 7.3713 25.8094 7.56793 25.8094 7.81043Z" fill="#292E30"/>
<path d="M4.19245 14.1621L3.56836 14.2881V6.1514L4.19245 6.27734V14.1621Z" fill="#292E30"/>
</svg>
