<svg width="39" height="39" viewBox="0 0 39 39" fill="none" xmlns="http://www.w3.org/2000/svg">
<path d="M19.3722 38.8066C8.79383 38.8066 0.1875 30.2299 0.1875 19.6887C0.1875 9.14747 8.79383 0.571346 19.3722 0.571346C29.9512 0.571346 38.5575 9.14747 38.5575 19.6887C38.5575 30.2299 29.9512 38.8066 19.3722 38.8066Z" fill="#70889C"/>
<path d="M19.3725 38.6387C8.86996 38.6387 0.355469 30.1546 0.355469 19.6884C0.355469 9.22279 8.86996 0.738182 19.3725 0.738182C29.8756 0.738182 38.3895 9.22279 38.3895 19.6884C38.3895 30.1546 29.8756 38.6387 19.3725 38.6387Z" fill="#5E9EA7"/>
<path d="M27.9072 7.24192C26.8154 7.24192 25.9295 8.12415 25.9295 9.21272V17.7178H21.3499V9.21272C21.3499 8.12415 20.4646 7.24192 19.3721 7.24192C18.2797 7.24192 17.3944 8.12415 17.3944 9.21272V17.7178H12.8149V9.21272C12.8149 8.12415 11.9295 7.24192 10.8371 7.24192C9.74471 7.24192 8.85938 8.12415 8.85938 9.21272V17.7178V21.6594V30.1645C8.85938 31.253 9.74471 32.1353 10.8371 32.1353C11.9295 32.1353 12.8149 31.253 12.8149 30.1645V21.6594H17.3944V30.1645C17.3944 31.253 18.2797 32.1353 19.3721 32.1353C20.4646 32.1353 21.3499 31.253 21.3499 30.1645V21.6594H25.9295V30.1645C25.9295 31.253 26.8154 32.1353 27.9072 32.1353C28.9996 32.1353 29.8849 31.253 29.8849 30.1645V21.6594V17.7178V9.21272C29.8849 8.12415 28.9996 7.24192 27.9072 7.24192Z" fill="#292E30"/>
<path d="M27.9069 31.9678C26.9092 31.9678 26.0974 31.1589 26.0974 30.1641V21.4919H21.1819V30.1641C21.1819 31.1589 20.3701 31.9678 19.3718 31.9678C18.3741 31.9678 17.5624 31.1589 17.5624 30.1641V21.4919H12.6468V30.1641C12.6468 31.1589 11.8345 31.9678 10.8368 31.9678C9.83909 31.9678 9.02734 31.1589 9.02734 30.1641V9.21236C9.02734 8.21815 9.83909 7.40926 10.8368 7.40926C11.8345 7.40926 12.6468 8.21815 12.6468 9.21236V17.8846H17.5624V9.21236C17.5624 8.21815 18.3741 7.40926 19.3718 7.40926C20.3701 7.40926 21.1819 8.21815 21.1819 9.21236V17.8846H26.0974V9.21236C26.0974 8.21815 26.9092 7.40926 27.9069 7.40926C28.9052 7.40926 29.7169 8.21815 29.7169 9.21236V30.1641C29.7169 31.1589 28.9052 31.9678 27.9069 31.9678Z" fill="#0F3858"/>
<path d="M34.8423 25.3817C34.8423 21.0058 31.6882 17.4587 27.7984 17.4587C23.9079 17.4587 20.7539 21.0058 20.7539 25.3817C20.7539 26.7062 21.0437 27.9545 21.5542 29.0522C22.4898 31.2378 24.3956 34.1164 25.2724 34.5081C26.1498 34.9003 27.7984 34.8548 27.7984 34.8548C27.7984 34.8548 29.4464 34.9003 30.3237 34.5081C31.2005 34.1164 33.1064 31.2378 34.0419 29.0522C34.553 27.9545 34.8423 26.7062 34.8423 25.3817Z" fill="#B0D2D3"/>
<path d="M32.7726 25.3256C32.7726 28.4162 30.545 30.9214 27.7977 30.9214C25.0499 30.9214 22.8223 28.4162 22.8223 25.3256C22.8223 22.235 25.0499 19.7298 27.7977 19.7298C30.545 19.7298 32.7726 22.235 32.7726 25.3256Z" fill="#0F3858"/>
<path d="M29.7432 27.2759C29.6902 27.2759 29.6474 27.2332 29.6474 27.1804V25.6433C29.6474 25.5904 29.6046 25.5478 29.5516 25.5478H28.1169C28.0638 25.5478 28.0205 25.5904 28.0205 25.6433V27.1804C28.0205 27.2332 27.9777 27.2759 27.9246 27.2759H27.6708C27.6177 27.2759 27.575 27.2332 27.575 27.1804V25.6433C27.575 25.5904 27.5316 25.5478 27.4785 25.5478H26.0439C25.9908 25.5478 25.948 25.5904 25.948 25.6433V27.1804C25.948 27.2332 25.9053 27.2759 25.8522 27.2759H25.5984C25.5453 27.2759 25.502 27.2332 25.502 27.1804C25.502 26.6176 25.502 25.0686 25.502 25.1033V23.4707C25.502 23.4178 25.5453 23.3752 25.5984 23.3752H25.8522C25.9053 23.3752 25.948 23.4178 25.948 23.4707V25.0078C25.948 25.0606 25.9908 25.1033 26.0439 25.1033H27.4785C27.5316 25.1033 27.575 25.0606 27.575 25.0078V23.4707C27.575 23.4178 27.6177 23.3752 27.6708 23.3752H27.9246C27.9777 23.3752 28.0205 23.4178 28.0205 23.4707V25.0078C28.0205 25.0606 28.0638 25.1033 28.1169 25.1033H29.5516C29.6046 25.1033 29.6474 25.0606 29.6474 25.0078V23.4707C29.6474 23.4178 29.6902 23.3752 29.7432 23.3752H29.9976C30.0507 23.3752 30.0935 23.4178 30.0935 23.4707V27.1804C30.0935 27.2332 30.0507 27.2759 29.9976 27.2759H29.7432Z" fill="#F49A22"/>
<path d="M29.9068 28.2525C30.0443 28.2525 30.1219 28.1973 30.1219 28.0581C30.1219 27.933 30.0494 27.8796 29.888 27.8796H29.7688V28.2525H29.9068ZM29.7688 28.4116V28.8755H29.5469V27.7187H29.8931C30.1972 27.7187 30.3535 27.829 30.3535 28.0581C30.3535 28.2161 30.2765 28.3099 30.1185 28.3713L30.4219 28.8755H30.1669L29.9102 28.4116H29.7688Z" fill="#E75643"/>
<path d="M25.7232 22.8848V21.9735L25.4711 22.1265L25.377 21.9826L25.7449 21.7575H25.9349V22.8848H25.7232Z" fill="#E75643"/>
<path d="M28.0987 22.024C28.0987 22.1644 28.0114 22.2531 27.8791 22.2884C28.02 22.302 28.1358 22.389 28.1358 22.5629C28.1358 22.7556 27.9846 22.9097 27.7256 22.9097C27.571 22.9097 27.4472 22.8528 27.3594 22.7477L27.482 22.6317C27.5511 22.7084 27.6252 22.7425 27.7136 22.7425C27.8346 22.7425 27.9139 22.6704 27.9139 22.5533C27.9139 22.4191 27.8386 22.3719 27.7108 22.3719H27.6218L27.6469 22.2201H27.7074C27.8129 22.2201 27.8888 22.1593 27.8888 22.049C27.8888 21.957 27.8232 21.9018 27.7222 21.9018C27.6355 21.9018 27.5665 21.9336 27.4957 22.0007L27.3862 21.8819C27.4872 21.7864 27.6047 21.7375 27.741 21.7375C27.9749 21.7375 28.0987 21.8688 28.0987 22.024Z" fill="#E75643"/>
<path d="M29.8279 21.9172V22.1968C29.8843 22.1679 29.9437 22.1548 29.999 22.1548C30.1867 22.1548 30.3236 22.2884 30.3236 22.518C30.3236 22.7494 30.157 22.9097 29.9015 22.9097C29.7434 22.9097 29.6328 22.846 29.5449 22.7505L29.6693 22.6351C29.7303 22.705 29.8028 22.7443 29.8969 22.7443C30.0224 22.7443 30.1011 22.6635 30.1011 22.518C30.1011 22.3623 30.0241 22.3088 29.9203 22.3088C29.8678 22.3088 29.8262 22.3208 29.7737 22.3469H29.6208V21.7574H30.2762L30.2511 21.9172H29.8279Z" fill="#E75643"/>
<path d="M26.0955 28.045C26.0955 28.236 25.9865 28.3747 25.6374 28.7061H26.1206L26.0972 28.8755H25.3938V28.7186C25.78 28.3264 25.8742 28.2212 25.8742 28.0615C25.8742 27.958 25.8086 27.8978 25.711 27.8978C25.622 27.8978 25.5633 27.9347 25.4942 28.0166L25.3613 27.9131C25.4526 27.7954 25.5718 27.7284 25.7281 27.7284C25.9614 27.7284 26.0955 27.8693 26.0955 28.045Z" fill="#E75643"/>
<path d="M28.0965 28.618V28.8755H27.8866V28.618H27.4062V28.4702L27.736 27.7267L27.9185 27.7954L27.6299 28.4537H27.8883L27.91 28.1706H28.0965V28.4537H28.2328V28.618H28.0965Z" fill="#E75643"/>
</svg>
