<svg width="39" height="40" viewBox="0 0 39 40" fill="none" xmlns="http://www.w3.org/2000/svg">
<path d="M13.4447 28.499H11.877V29.1948H13.4447V28.499Z" fill="#415F79"/>
<path d="M13.4447 35.7094H11.877V36.4053H13.4447V35.7094Z" fill="#415F79"/>
<path d="M26.0176 28.499H27.5854V29.1948H26.0176V28.499Z" fill="#415F79"/>
<path d="M26.0176 35.7094H27.5854V36.4053H26.0176V35.7094Z" fill="#415F79"/>
<path d="M19.7296 27.0335C16.7627 27.0335 14.3574 29.4595 14.3574 32.4521C14.3574 35.4447 16.7627 37.8706 19.7296 37.8706C22.6964 37.8706 25.1017 35.4447 25.1017 32.4521C25.1017 29.4595 22.6964 27.0335 19.7296 27.0335ZM24.2236 32.4521C24.2236 34.9558 22.2116 36.9851 19.7296 36.9851C17.2475 36.9851 15.2354 34.9558 15.2354 32.4521C15.2354 29.9489 17.2475 27.9195 19.7296 27.9195C22.2116 27.9195 24.2236 29.9489 24.2236 32.4521Z" fill="#B0D2D3"/>
<path d="M27.7254 31.0082V29.1948C27.7254 29.1948 26.5496 29.1948 25.9852 29.1948C25.4207 29.1948 23.0536 25.5897 22.2696 20.9721C21.4858 16.3546 21.538 13.6982 21.538 13.6982H19.73H17.9218C17.9218 13.6982 17.974 16.3546 17.1902 20.9721C16.4062 25.5897 14.0391 29.1948 13.4746 29.1948C12.9102 29.1948 11.7344 29.1948 11.7344 29.1948V31.0082C11.7344 31.0082 11.1074 31.4294 11.1074 31.8931C11.1074 32.0939 11.1074 32.4519 11.1074 32.4519C11.1074 32.4519 11.1074 32.8105 11.1074 33.0107C11.1074 33.4744 11.7344 33.8962 11.7344 33.8962V35.7097C11.7344 35.7097 12.9102 35.7097 13.4746 35.7097C13.7605 35.7097 14.1862 36.269 14.3143 36.4463C15.5352 38.1278 17.5057 39.2202 19.73 39.2202C21.9541 39.2202 23.9249 38.1278 25.1456 36.4463C25.2734 36.269 25.6993 35.7097 25.9852 35.7097C26.5496 35.7097 27.7254 35.7097 27.7254 35.7097V33.8962C27.7254 33.8962 28.3524 33.4744 28.3524 33.0107C28.3524 32.8105 28.3524 32.4519 28.3524 32.4519C28.3524 32.4519 28.3524 32.0939 28.3524 31.8931C28.3524 31.4294 27.7254 31.0082 27.7254 31.0082ZM25.1332 32.4519C25.1332 35.4619 22.7141 37.9024 19.73 37.9024C16.7457 37.9024 14.3263 35.4619 14.3263 32.4519C14.3263 29.442 16.7457 27.0021 19.73 27.0021C22.7141 27.0021 25.1332 29.442 25.1332 32.4519Z" fill="#0F3858"/>
<path d="M21.6198 26.5612C21.8518 26.5959 22.0847 26.5031 22.23 26.3174C22.3754 26.1317 22.4109 25.8822 22.3237 25.6623C21.7314 24.1689 21.2662 22.5562 21.0336 21.1858C20.5496 18.3353 20.3763 16.213 20.3153 14.9634H19.1445C19.0837 16.213 18.9104 18.3353 18.4264 21.1858C18.1936 22.5573 17.7278 24.1717 17.1347 25.6663C17.0478 25.8855 17.0835 26.135 17.2285 26.3207C17.3734 26.5059 17.6056 26.5998 17.8372 26.5652C18.5865 26.4544 19.4678 26.3325 19.7301 26.3325C20.0291 26.3325 20.8885 26.4511 21.6198 26.5612Z" fill="#E75643"/>
<path d="M12.6602 16.8452V17.7251H13.4053V16.8452C13.4053 15.0267 14.6334 14.1832 16.3058 14.1832C16.0474 14.1832 15.7957 14.1832 15.5604 14.1832C13.8882 14.1832 12.6602 15.0267 12.6602 16.8452Z" fill="#0F3858"/>
<path d="M19.7299 0.985067H10.9199V17.7251H12.6601V16.8452C12.6601 15.0267 13.8882 14.1832 15.5604 14.1832C17.2328 14.1832 19.7299 14.1832 19.7299 14.1832C19.7299 14.1832 22.2272 14.1832 23.8994 14.1832C25.5715 14.1832 26.7996 15.0267 26.7996 16.8452V17.7251H28.5398V0.985067H19.7299Z" fill="#B0D2D3"/>
<path d="M26.7978 16.8452V17.7251H26.0526V16.8452C26.0526 15.0267 24.8246 14.1832 23.1523 14.1832C23.4108 14.1832 23.6626 14.1832 23.8976 14.1832C25.5697 14.1832 26.7978 15.0267 26.7978 16.8452Z" fill="#0F3858"/>
<path d="M19.7307 8.02458C18.4941 8.02458 17.4916 9.03535 17.4916 10.2827C17.4916 11.5301 18.4941 12.5414 19.7307 12.5414C20.9674 12.5414 21.9698 11.5301 21.9698 10.2827C21.9698 9.03535 20.9674 8.02458 19.7307 8.02458ZM22.1765 10.2827C22.1765 11.6453 21.0814 12.7495 19.7307 12.7495C18.38 12.7495 17.2852 11.6453 17.2852 10.2827C17.2852 8.92068 18.38 7.81594 19.7307 7.81594C21.0814 7.81594 22.1765 8.92068 22.1765 10.2827Z" fill="#0F3858"/>
<path d="M28.5398 2.9668H10.9199V2.46057H28.5398V2.9668Z" fill="#0F3858"/>
<path d="M28.5398 4.00488H10.9199V3.49922H28.5398V4.00488Z" fill="#0F3858"/>
<path d="M28.5398 5.04395H10.9199V4.53772H28.5398V5.04395Z" fill="#0F3858"/>
</svg>
