<svg width="39" height="39" viewBox="0 0 39 39" fill="none" xmlns="http://www.w3.org/2000/svg">
<path d="M38.5568 19.3042C38.5568 29.8625 29.9646 38.4219 19.3653 38.4219C8.7663 38.4219 0.173828 29.8625 0.173828 19.3042C0.173828 8.74541 8.7663 0.186581 19.3653 0.186581C29.9646 0.186581 38.5568 8.74541 38.5568 19.3042Z" fill="#0F3858"/>
<path d="M36.2336 19.3044C36.2336 28.5844 28.6818 36.1074 19.3657 36.1074C10.0499 36.1074 2.49805 28.5844 2.49805 19.3044C2.49805 10.0244 10.0499 2.50134 19.3657 2.50134C28.6818 2.50134 36.2336 10.0244 36.2336 19.3044Z" fill="#B0D2D3"/>
<path d="M19.166 6.09668H19.5658V2.8981H19.166V6.09668Z" fill="#0F3858"/>
<path d="M17.9785 3.24034L18.0821 4.55176L18.3199 4.53316L18.2161 3.22174L17.9785 3.24034Z" fill="#0F3858"/>
<path d="M16.7168 3.39856L16.9232 4.69775L17.159 4.66054L16.9524 3.36133L16.7168 3.39856Z" fill="#0F3858"/>
<path d="M15.4727 3.65523L15.781 4.93408L16.0129 4.87884L15.7046 3.5994L15.4727 3.65523Z" fill="#0F3858"/>
<path d="M14.252 4.00736L14.6599 5.2583L14.8868 5.18502L14.4789 3.93409L14.252 4.00736Z" fill="#0F3858"/>
<path d="M11.9121 4.99262L12.5114 6.16504L12.7242 6.05688L12.1246 4.88502L11.9121 4.99262Z" fill="#0F3858"/>
<path d="M10.8086 5.61947L11.4987 6.74072L11.7021 6.61684L11.012 5.49559L10.8086 5.61947Z" fill="#0F3858"/>
<path d="M9.75781 6.33085L10.5339 7.39453L10.727 7.25495L9.9507 6.19129L9.75781 6.33085Z" fill="#0F3858"/>
<path d="M9.80267 7.96737L8.94494 6.96708L8.76367 7.12179L9.62111 8.12207L9.80267 7.96737Z" fill="#0F3858"/>
<path d="M8.14157 9.59745L7.13748 8.74314L6.98242 8.92401L7.98651 9.77832L8.14157 9.59745Z" fill="#0F3858"/>
<path d="M7.41155 10.5048L6.34312 9.73129L6.20312 9.92379L7.27132 10.6973L7.41155 10.5048Z" fill="#0F3858"/>
<path d="M6.75454 11.466L5.62843 10.7786L5.50391 10.9815L6.62978 11.6689L6.75454 11.466Z" fill="#0F3858"/>
<path d="M6.17547 12.4763L4.99892 11.879L4.89062 12.0907L6.06711 12.688L6.17547 12.4763Z" fill="#0F3858"/>
<path d="M5.26706 14.6157L4.01118 14.2091L3.9375 14.4348L5.19338 14.8413L5.26706 14.6157Z" fill="#0F3858"/>
<path d="M4.9414 15.7319L3.6572 15.4249L3.60156 15.6563L4.88553 15.9634L4.9414 15.7319Z" fill="#0F3858"/>
<path d="M4.70292 16.8705L3.39869 16.6646L3.36133 16.8996L4.66549 17.1055L4.70292 16.8705Z" fill="#0F3858"/>
<path d="M4.55765 18.024L3.24134 17.921L3.22266 18.1577L4.53896 18.2612L4.55765 18.024Z" fill="#0F3858"/>
<path d="M4.53896 20.3478L3.22266 20.4507L3.24134 20.688L4.55765 20.5845L4.53896 20.3478Z" fill="#0F3858"/>
<path d="M4.66549 21.5031L3.36133 21.709L3.39869 21.9434L4.70292 21.7381L4.66549 21.5031Z" fill="#0F3858"/>
<path d="M4.88553 22.6452L3.60156 22.9522L3.6572 23.1831L4.9414 22.876L4.88553 22.6452Z" fill="#0F3858"/>
<path d="M5.19338 23.7667L3.9375 24.1732L4.01118 24.3994L5.26706 23.9929L5.19338 23.7667Z" fill="#0F3858"/>
<path d="M6.06711 25.9205L4.89062 26.5178L4.99892 26.7295L6.17547 26.1322L6.06711 25.9205Z" fill="#0F3858"/>
<path d="M6.62978 26.9398L5.50391 27.6272L5.62843 27.8296L6.75454 27.1422L6.62978 26.9398Z" fill="#0F3858"/>
<path d="M7.27132 27.9116L6.20312 28.685L6.34312 28.877L7.41155 28.1041L7.27132 27.9116Z" fill="#0F3858"/>
<path d="M7.98651 28.8301L6.98242 29.6844L7.13748 29.8652L8.14157 29.0109L7.98651 28.8301Z" fill="#0F3858"/>
<path d="M30.5918 29.0109L31.5959 29.8652L31.7507 29.6844L30.7469 28.8301L30.5918 29.0109Z" fill="#0F3858"/>
<path d="M31.3223 28.1041L32.3905 28.877L32.5307 28.685L31.4626 27.9116L31.3223 28.1041Z" fill="#0F3858"/>
<path d="M31.9785 27.1422L33.1044 27.8296L33.2291 27.6272L32.1032 26.9398L31.9785 27.1422Z" fill="#0F3858"/>
<path d="M32.5566 26.1322L33.7331 26.7295L33.8415 26.5178L32.6649 25.9205L32.5566 26.1322Z" fill="#0F3858"/>
<path d="M33.4668 23.9929L34.7227 24.3994L34.7963 24.1732L33.5405 23.7667L33.4668 23.9929Z" fill="#0F3858"/>
<path d="M33.793 22.876L35.0771 23.1831L35.1327 22.9522L33.8488 22.6452L33.793 22.876Z" fill="#0F3858"/>
<path d="M34.0293 21.7381L35.3335 21.9434L35.3709 21.709L34.0667 21.5031L34.0293 21.7381Z" fill="#0F3858"/>
<path d="M34.1758 20.5845L35.4923 20.688L35.511 20.4507L34.1948 20.3478L34.1758 20.5845Z" fill="#0F3858"/>
<path d="M34.1948 18.2612L35.511 18.1577L35.4923 17.921L34.1758 18.024L34.1948 18.2612Z" fill="#0F3858"/>
<path d="M34.0667 17.1055L35.3709 16.8996L35.3335 16.6646L34.0293 16.8705L34.0667 17.1055Z" fill="#0F3858"/>
<path d="M33.8488 15.9634L35.1327 15.6563L35.0771 15.4249L33.793 15.7319L33.8488 15.9634Z" fill="#0F3858"/>
<path d="M33.5405 14.8413L34.7963 14.4348L34.7227 14.2091L33.4668 14.6157L33.5405 14.8413Z" fill="#0F3858"/>
<path d="M32.6649 12.688L33.8415 12.0907L33.7331 11.879L32.5566 12.4763L32.6649 12.688Z" fill="#0F3858"/>
<path d="M32.1032 11.6689L33.2291 10.9815L33.1044 10.7786L31.9785 11.466L32.1032 11.6689Z" fill="#0F3858"/>
<path d="M31.4626 10.6973L32.5307 9.92379L32.3905 9.73129L31.3223 10.5048L31.4626 10.6973Z" fill="#0F3858"/>
<path d="M30.7469 9.77832L31.7507 8.92401L31.5959 8.74314L30.5918 9.59745L30.7469 9.77832Z" fill="#0F3858"/>
<path d="M29.111 8.12207L29.9687 7.12179L29.7872 6.96708L28.9297 7.96737L29.111 8.12207Z" fill="#0F3858"/>
<path d="M28.7819 6.19129L28.0059 7.25495L28.199 7.39453L28.9751 6.33085L28.7819 6.19129Z" fill="#0F3858"/>
<path d="M27.0312 6.61684L27.2347 6.74072L27.9248 5.61947L27.7214 5.49559L27.0312 6.61684Z" fill="#0F3858"/>
<path d="M26.0078 6.05688L26.2201 6.16504L26.8199 4.99262L26.6071 4.88502L26.0078 6.05688Z" fill="#0F3858"/>
<path d="M24.2537 3.93409L23.8457 5.18502L24.0726 5.2583L24.4806 4.00736L24.2537 3.93409Z" fill="#0F3858"/>
<path d="M22.7207 4.87884L22.9526 4.93408L23.261 3.65523L23.0291 3.5994L22.7207 4.87884Z" fill="#0F3858"/>
<path d="M21.5742 4.66054L21.81 4.69775L22.0164 3.39856L21.7808 3.36133L21.5742 4.66054Z" fill="#0F3858"/>
<path d="M20.4141 4.53316L20.6519 4.55176L20.7554 3.24034L20.5176 3.22174L20.4141 4.53316Z" fill="#0F3858"/>
<path d="M12.8789 4.22273L14.1076 7.17822L14.4771 7.02585L13.2483 4.07035L12.8789 4.22273Z" fill="#0F3858"/>
<path d="M7.57812 7.84427L9.84884 10.106L10.1313 9.82449L7.86092 7.56221L7.57812 7.84427Z" fill="#0F3858"/>
<path d="M7.19396 14.0655L4.22723 12.8413L4.07422 13.2094L7.04089 14.4336L7.19396 14.0655Z" fill="#0F3858"/>
<path d="M6.10765 19.105H2.89648V19.5034H6.10765V19.105Z" fill="#0F3858"/>
<path d="M7.04089 24.1743L4.07422 25.3985L4.22723 25.7666L7.19396 24.5424L7.04089 24.1743Z" fill="#0F3858"/>
<path d="M7.57812 30.7644L7.86092 31.0459L10.1313 28.7842L9.84884 28.5027L7.57812 30.7644Z" fill="#0F3858"/>
<path d="M28.5996 28.7842L30.8703 31.0459L31.1531 30.7644L28.8824 28.5027L28.5996 28.7842Z" fill="#0F3858"/>
<path d="M31.5391 24.5424L34.5057 25.7666L34.6588 25.3985L31.6921 24.1743L31.5391 24.5424Z" fill="#0F3858"/>
<path d="M32.625 19.105V19.5034H35.8362V19.105H32.625Z" fill="#0F3858"/>
<path d="M31.6921 14.4336L34.6588 13.2094L34.5057 12.8413L31.5391 14.0655L31.6921 14.4336Z" fill="#0F3858"/>
<path d="M28.8824 10.106L31.1531 7.84427L30.8703 7.56221L28.5996 9.82449L28.8824 10.106Z" fill="#0F3858"/>
<path d="M24.2559 7.02585L24.6254 7.17822L25.8543 4.22273L25.4848 4.07035L24.2559 7.02585Z" fill="#0F3858"/>
<path d="M11.0562 27.8458C11.0562 28.2936 11.1132 28.4273 11.2708 28.4273C11.4256 28.4273 11.4827 28.3064 11.4827 27.8458C11.4827 27.3828 11.4256 27.2665 11.2708 27.2665C11.1132 27.2665 11.0562 27.4003 11.0562 27.8458ZM11.9527 27.8458C11.9527 28.4326 11.7123 28.7617 11.2708 28.7617C10.829 28.7617 10.5859 28.4326 10.5859 27.8458C10.5859 27.2566 10.829 26.9321 11.2708 26.9321C11.7123 26.9321 11.9527 27.259 11.9527 27.8458Z" fill="#34476C"/>
<path d="M9.21365 23.8573C9.21365 24.0359 9.1377 24.1708 8.75227 24.5098H9.24051L9.20636 24.7529H8.38716V24.529C8.7922 24.1388 8.88433 24.0289 8.88433 23.8916C8.88433 23.8015 8.83003 23.7474 8.74159 23.7474C8.65653 23.7474 8.59494 23.7875 8.52832 23.8719L8.3418 23.7224C8.43964 23.5927 8.58419 23.5043 8.77597 23.5043C9.06356 23.5043 9.21365 23.6683 9.21365 23.8573Z" fill="#34476C"/>
<path d="M9.67112 24.1443C9.67112 24.4577 9.71082 24.5514 9.82116 24.5514C9.92975 24.5514 9.96939 24.4665 9.96939 24.1443C9.96939 23.8198 9.92975 23.7389 9.82116 23.7389C9.71082 23.7389 9.67112 23.8326 9.67112 24.1443ZM10.2987 24.1443C10.2987 24.5549 10.1304 24.7852 9.82116 24.7852C9.51168 24.7852 9.3418 24.5549 9.3418 24.1443C9.3418 23.7314 9.51168 23.5046 9.82116 23.5046C10.1304 23.5046 10.2987 23.7331 10.2987 24.1443Z" fill="#34476C"/>
<path d="M8.21764 19.9871V20.3477H7.76816L7.76565 19.9871H7.0293V19.6858L7.51753 18.5535L7.91049 18.6954L7.5023 19.6475H7.77067L7.82269 19.2508H8.21764V19.6475H8.4065V19.9871H8.21764Z" fill="#34476C"/>
<path d="M9.00541 19.4776C9.00541 19.9254 9.06239 20.0592 9.22002 20.0592C9.37484 20.0592 9.43188 19.9382 9.43188 19.4776C9.43188 19.0141 9.37484 18.8984 9.22002 18.8984C9.06239 18.8984 9.00541 19.0321 9.00541 19.4776ZM9.90185 19.4776C9.90185 20.0644 9.66149 20.3936 9.22002 20.3936C8.77802 20.3936 8.53516 20.0644 8.53516 19.4776C8.53516 18.8885 8.77802 18.564 9.22002 18.564C9.66149 18.564 9.90185 18.8908 9.90185 19.4776Z" fill="#34476C"/>
<path d="M8.71404 15.7941C8.71404 15.6464 8.67236 15.5975 8.58386 15.5975C8.53505 15.5975 8.47871 15.6231 8.43172 15.672C8.43382 15.9238 8.46803 16.0157 8.57837 16.0157C8.67236 16.0157 8.71404 15.9273 8.71404 15.7941ZM9.03584 15.7906C9.03584 16.0337 8.86753 16.2407 8.57656 16.2407C8.24198 16.2407 8.09375 16.0069 8.09375 15.6534C8.09375 15.2375 8.30515 14.9601 8.65064 14.9601C8.77015 14.9601 8.86753 14.9939 8.93642 15.041L8.82059 15.23C8.77202 15.2015 8.72321 15.1834 8.65776 15.1834C8.53505 15.1834 8.44999 15.2846 8.43172 15.4789C8.50586 15.4103 8.59273 15.3812 8.68147 15.3812C8.88761 15.3812 9.03584 15.5312 9.03584 15.7906Z" fill="#34476C"/>
<path d="M9.45817 15.5993C9.45817 15.9133 9.49787 16.0069 9.60804 16.0069C9.7168 16.0069 9.75626 15.922 9.75626 15.5993C9.75626 15.2753 9.7168 15.1939 9.60804 15.1939C9.49787 15.1939 9.45817 15.2875 9.45817 15.5993ZM10.0855 15.5993C10.0855 16.0098 9.91745 16.2407 9.60804 16.2407C9.29879 16.2407 9.12891 16.0098 9.12891 15.5993C9.12891 15.1869 9.29879 14.9601 9.60804 14.9601C9.91745 14.9601 10.0855 15.1887 10.0855 15.5993Z" fill="#34476C"/>
<path d="M10.3025 11.2061C10.3025 11.309 10.3565 11.3759 10.4806 11.4299L10.5402 11.4555C10.651 11.3729 10.6745 11.2933 10.6745 11.2008C10.6745 11.1008 10.6122 11.0287 10.4911 11.0287C10.3776 11.0287 10.3025 11.0851 10.3025 11.2061ZM10.7285 12.0295C10.7285 11.901 10.6617 11.8417 10.4911 11.7748L10.4006 11.7411C10.2973 11.8033 10.2483 11.901 10.2483 12.0167C10.2483 12.1453 10.3438 12.2325 10.4939 12.2325C10.6537 12.2325 10.7285 12.14 10.7285 12.0295ZM11.1857 12.0348C11.1857 12.3128 10.9353 12.5547 10.4781 12.5547C10.0391 12.5547 9.79102 12.3203 9.79102 12.0423C9.79102 11.8417 9.90959 11.6998 10.1087 11.6149C9.9278 11.5021 9.85804 11.3526 9.85804 11.1985C9.85804 10.9228 10.1137 10.7251 10.4884 10.7251C10.8628 10.7251 11.1189 10.8949 11.1189 11.1776C11.1189 11.3195 11.0362 11.466 10.8423 11.5713C11.0827 11.6899 11.1857 11.8417 11.1857 12.0348Z" fill="#34476C"/>
<path d="M11.8021 11.6381C11.8021 12.0859 11.859 12.2197 12.0169 12.2197C12.1715 12.2197 12.2285 12.0987 12.2285 11.6381C12.2285 11.1752 12.1715 11.0595 12.0169 11.0595C11.859 11.0595 11.8021 11.1933 11.8021 11.6381ZM12.6985 11.6381C12.6985 12.2249 12.4584 12.5547 12.0169 12.5547C11.5749 12.5547 11.332 12.2249 11.332 11.6381C11.332 11.049 11.5749 10.7251 12.0169 10.7251C12.4584 10.7251 12.6985 11.0519 12.6985 11.6381Z" fill="#34476C"/>
<path d="M26.39 12.5083V11.2033L26.0233 11.4278L25.8242 11.1265L26.429 10.7636H26.8372V12.5083H26.39Z" fill="#34476C"/>
<path d="M27.9973 11.9161C27.9973 11.705 27.9381 11.6358 27.8115 11.6358C27.7417 11.6358 27.6614 11.6719 27.5946 11.7411C27.5971 12.1017 27.6462 12.2325 27.8037 12.2325C27.9381 12.2325 27.9973 12.1069 27.9973 11.9161ZM28.4573 11.9115C28.4573 12.2587 28.2172 12.5547 27.8012 12.5547C27.3232 12.5547 27.1113 12.2197 27.1113 11.7155C27.1113 11.1211 27.4135 10.7251 27.907 10.7251C28.0774 10.7251 28.2172 10.7739 28.3153 10.8408L28.1499 11.1107C28.0799 11.0694 28.0106 11.0438 27.9173 11.0438C27.7417 11.0438 27.6201 11.188 27.5946 11.466C27.7002 11.3683 27.8242 11.327 27.9508 11.327C28.2452 11.327 28.4573 11.5404 28.4573 11.9115Z" fill="#34476C"/>
<path d="M29.0601 11.6381C29.0601 12.0859 29.1171 12.2197 29.2747 12.2197C29.4295 12.2197 29.4866 12.0987 29.4866 11.6381C29.4866 11.1752 29.4295 11.0595 29.2747 11.0595C29.1171 11.0595 29.0601 11.1933 29.0601 11.6381ZM29.9565 11.6381C29.9565 12.2249 29.7162 12.5547 29.2747 12.5547C28.8327 12.5547 28.5898 12.2249 28.5898 11.6381C28.5898 11.049 28.8327 10.7251 29.2747 10.7251C29.7162 10.7251 29.9565 11.0519 29.9565 11.6381Z" fill="#34476C"/>
<path d="M28.3612 16.208V15.2949L28.1042 15.452L27.9648 15.2409L28.3881 14.9867H28.6738V16.208H28.3612Z" fill="#34476C"/>
<path d="M29.2096 15.2969C29.2096 15.369 29.2474 15.4161 29.3341 15.4539L29.3756 15.4713C29.4534 15.4137 29.4698 15.3579 29.4698 15.2934C29.4698 15.223 29.4265 15.1724 29.3414 15.1724C29.2618 15.1724 29.2096 15.2119 29.2096 15.2969ZM29.5076 15.8732C29.5076 15.783 29.4606 15.7418 29.3414 15.6952L29.2782 15.672C29.2057 15.715 29.1713 15.783 29.1713 15.8645C29.1713 15.9546 29.2383 16.0157 29.3432 16.0157C29.4552 16.0157 29.5076 15.9511 29.5076 15.8732ZM29.8279 15.8772C29.8279 16.0715 29.6525 16.2407 29.3323 16.2407C29.0251 16.2407 28.8516 16.0767 28.8516 15.8825C28.8516 15.7417 28.9343 15.6429 29.0739 15.5836C28.9474 15.5039 28.8986 15.3998 28.8986 15.2916C28.8986 15.0985 29.0776 14.9601 29.3393 14.9601C29.6016 14.9601 29.7809 15.0788 29.7809 15.2771C29.7809 15.376 29.723 15.4789 29.5872 15.5527C29.7553 15.6353 29.8279 15.7417 29.8279 15.8772Z" fill="#34476C"/>
<path d="M30.261 15.5993C30.261 15.9133 30.3004 16.0069 30.4108 16.0069C30.5194 16.0069 30.559 15.922 30.559 15.5993C30.559 15.2753 30.5194 15.1939 30.4108 15.1939C30.3004 15.1939 30.261 15.2875 30.261 15.5993ZM30.8883 15.5993C30.8883 16.0098 30.72 16.2407 30.4108 16.2407C30.1016 16.2407 29.9316 16.0098 29.9316 15.5993C29.9316 15.1869 30.1016 14.9601 30.4108 14.9601C30.72 14.9601 30.8883 15.1887 30.8883 15.5993Z" fill="#34476C"/>
<path d="M29.1338 19.0687C29.1338 19.3234 29.0255 19.5165 28.475 20.0004H29.1726L29.1236 20.3481H27.9535V20.0289C28.5323 19.4706 28.6639 19.3135 28.6639 19.1176C28.6639 18.989 28.5863 18.9117 28.4597 18.9117C28.3381 18.9117 28.2503 18.9681 28.1551 19.0891L27.8887 18.8756C28.0283 18.6907 28.2349 18.5645 28.5087 18.5645C28.9194 18.5645 29.1338 18.7983 29.1338 19.0687Z" fill="#34476C"/>
<path d="M29.7884 19.4781C29.7884 19.9259 29.8454 20.0596 30.003 20.0596C30.1578 20.0596 30.2149 19.9387 30.2149 19.4781C30.2149 19.0152 30.1578 18.8988 30.003 18.8988C29.8454 18.8988 29.7884 19.0326 29.7884 19.4781ZM30.6848 19.4781C30.6848 20.0649 30.4445 20.394 30.003 20.394C29.5612 20.394 29.3184 20.0649 29.3184 19.4781C29.3184 18.889 29.5612 18.5644 30.003 18.5644C30.4445 18.5644 30.6848 18.8913 30.6848 19.4781Z" fill="#34476C"/>
<path d="M31.3215 19.4781C31.3215 19.9259 31.3786 20.0596 31.5361 20.0596C31.691 20.0596 31.748 19.9387 31.748 19.4781C31.748 19.0152 31.691 18.8988 31.5361 18.8988C31.3786 18.8988 31.3215 19.0326 31.3215 19.4781ZM32.218 19.4781C32.218 20.0649 31.9779 20.394 31.5361 20.394C31.0944 20.394 30.8516 20.0649 30.8516 19.4781C30.8516 18.889 31.0944 18.5644 31.5361 18.5644C31.9779 18.5644 32.218 18.8913 32.218 19.4781Z" fill="#34476C"/>
<path d="M28.5396 23.8573C28.5396 24.0359 28.4639 24.1708 28.0782 24.5098H28.5667L28.5325 24.7529H27.7131V24.529C28.1184 24.1388 28.2103 24.0289 28.2103 23.8916C28.2103 23.8015 28.1562 23.7474 28.0675 23.7474C27.9827 23.7474 27.9211 23.7875 27.8543 23.8719L27.668 23.7224C27.7656 23.5927 27.9101 23.5043 28.102 23.5043C28.3893 23.5043 28.5396 23.6683 28.5396 23.8573Z" fill="#34476C"/>
<path d="M29.4832 23.8573C29.4832 24.0359 29.4072 24.1708 29.0221 24.5098H29.5103L29.4761 24.7529H28.6567V24.529C29.0617 24.1388 29.1539 24.0289 29.1539 23.8916C29.1539 23.8015 29.0999 23.7474 29.0111 23.7474C28.9263 23.7474 28.8645 23.7875 28.7979 23.8719L28.6113 23.7224C28.7092 23.5927 28.8538 23.5043 29.0456 23.5043C29.3329 23.5043 29.4832 23.6683 29.4832 23.8573Z" fill="#34476C"/>
<path d="M29.9423 24.1443C29.9423 24.4577 29.982 24.5514 30.0924 24.5514C30.2009 24.5514 30.2406 24.4665 30.2406 24.1443C30.2406 23.8198 30.2009 23.7389 30.0924 23.7389C29.982 23.7389 29.9423 23.8326 29.9423 24.1443ZM30.5699 24.1443C30.5699 24.5549 30.4017 24.7852 30.0924 24.7852C29.7832 24.7852 29.6133 24.5549 29.6133 24.1443C29.6133 23.7314 29.7832 23.5046 30.0924 23.5046C30.4017 23.5046 30.5699 23.7331 30.5699 24.1443Z" fill="#34476C"/>
<path d="M25.4776 27.437C25.4776 27.6911 25.3692 27.8848 24.8187 28.368H25.5163L25.4673 28.7158H24.2969V28.3965C24.8757 27.8382 25.0073 27.6812 25.0073 27.4852C25.0073 27.3567 24.93 27.2794 24.8034 27.2794C24.6819 27.2794 24.5941 27.3364 24.4985 27.4573L24.2324 27.2433C24.3717 27.0584 24.5783 26.9322 24.8525 26.9322C25.2632 26.9322 25.4776 27.1665 25.4776 27.437Z" fill="#34476C"/>
<path d="M26.8307 28.3553V28.7158H26.3812L26.3788 28.3553H25.6426V28.054L26.1306 26.9217L26.5235 27.0636L26.1153 28.0156H26.3837L26.4357 27.619H26.8307V28.0156H27.0195V28.3553H26.8307Z" fill="#34476C"/>
<path d="M27.6165 27.8458C27.6165 28.2936 27.6738 28.4273 27.8313 28.4273C27.9859 28.4273 28.0432 28.3064 28.0432 27.8458C28.0432 27.3828 27.9859 27.2665 27.8313 27.2665C27.6738 27.2665 27.6165 27.4003 27.6165 27.8458ZM28.5132 27.8458C28.5132 28.4326 28.2728 28.7617 27.8313 28.7617C27.3894 28.7617 27.1465 28.4326 27.1465 27.8458C27.1465 27.2566 27.3894 26.9321 27.8313 26.9321C28.2728 26.9321 28.5132 27.259 28.5132 27.8458Z" fill="#34476C"/>
<path d="M13.4765 9.97168V9.05804L13.2194 9.21507L13.0801 9.00395L13.5033 8.7504H13.7891V9.97168H13.4765Z" fill="#34476C"/>
<path d="M14.3098 9.36254C14.3098 9.676 14.3495 9.76963 14.4598 9.76963C14.5684 9.76963 14.6081 9.68472 14.6081 9.36254C14.6081 9.03803 14.5684 8.95719 14.4598 8.95719C14.3495 8.95719 14.3098 9.05082 14.3098 9.36254ZM14.9372 9.36254C14.9372 9.77312 14.7691 10.0034 14.4598 10.0034C14.1506 10.0034 13.9805 9.77312 13.9805 9.36254C13.9805 8.94963 14.1506 8.72282 14.4598 8.72282C14.7691 8.72282 14.9372 8.95137 14.9372 9.36254Z" fill="#34476C"/>
<path d="M15.384 9.36254C15.384 9.676 15.4234 9.76963 15.5338 9.76963C15.6423 9.76963 15.682 9.68472 15.682 9.36254C15.682 9.03803 15.6423 8.95719 15.5338 8.95719C15.4234 8.95719 15.384 9.05082 15.384 9.36254ZM16.0114 9.36254C16.0114 9.77312 15.8433 10.0034 15.5338 10.0034C15.2246 10.0034 15.0547 9.77312 15.0547 9.36254C15.0547 8.94963 15.2246 8.72282 15.5338 8.72282C15.8433 8.72282 16.0114 8.95137 16.0114 9.36254Z" fill="#34476C"/>
<path d="M17.7963 8.52441V7.21998L17.4294 7.44387L17.2305 7.14262L17.8351 6.77973H18.2433V8.52441H17.7963Z" fill="#34476C"/>
<path d="M19.6807 7.24556C19.6807 7.50029 19.5723 7.69337 19.0221 8.17722H19.7195L19.6704 8.52441H18.5003V8.20572C19.0788 7.64742 19.2107 7.4904 19.2107 7.29442C19.2107 7.16589 19.1331 7.08854 19.0066 7.08854C18.8853 7.08854 18.7974 7.14496 18.7019 7.26592L18.4355 7.05248C18.5748 6.86754 18.7817 6.74135 19.0556 6.74135C19.4663 6.74135 19.6807 6.97514 19.6807 7.24556Z" fill="#34476C"/>
<path d="M20.3372 7.65484C20.3372 8.10264 20.3942 8.2364 20.5518 8.2364C20.7066 8.2364 20.7636 8.11544 20.7636 7.65484C20.7636 7.19134 20.7066 7.07561 20.5518 7.07561C20.3942 7.07561 20.3372 7.20937 20.3372 7.65484ZM21.2336 7.65484C21.2336 8.24164 20.9935 8.5708 20.5518 8.5708C20.11 8.5708 19.8672 8.24164 19.8672 7.65484C19.8672 7.06572 20.11 6.74121 20.5518 6.74121C20.9935 6.74121 21.2336 7.06805 21.2336 7.65484Z" fill="#34476C"/>
<path d="M22.9335 9.97168V9.05862L22.6767 9.21507L22.5371 9.00454L22.9606 8.7504H23.2461V9.97168H22.9335Z" fill="#34476C"/>
<path d="M24.2558 9.71986V9.97168H23.9413L23.9392 9.71986H23.4238V9.50875L23.7657 8.71608L24.0405 8.81495L23.7547 9.482H23.9431L23.9791 9.20459H24.2558V9.482H24.3876V9.71986H24.2558Z" fill="#34476C"/>
<path d="M24.8059 9.36244C24.8059 9.6759 24.8456 9.76954 24.9557 9.76954C25.0645 9.76954 25.1039 9.68521 25.1039 9.36244C25.1039 9.03851 25.0645 8.9571 24.9557 8.9571C24.8456 8.9571 24.8059 9.05073 24.8059 9.36244ZM25.4332 9.36244C25.4332 9.77302 25.2652 10.0039 24.9557 10.0039C24.6464 10.0039 24.4766 9.77302 24.4766 9.36244C24.4766 8.95012 24.6464 8.72331 24.9557 8.72331C25.2652 8.72331 25.4332 8.95186 25.4332 9.36244Z" fill="#34476C"/>
<path d="M16.8888 21.6865L16.0879 20.3524L30.3129 12.4054L30.6468 12.9619L16.8888 21.6865Z" fill="#F49A22"/>
<path d="M20.1282 20.5716C19.4256 20.9903 18.5153 20.7623 18.0952 20.0621C17.6749 19.3625 17.9039 18.4553 18.6065 18.0371C19.3091 17.6184 20.2193 17.8464 20.6395 18.5466C21.0599 19.2462 20.8309 20.1528 20.1282 20.5716Z" fill="#E75643"/>
<path d="M17.773 32.7251L17.7411 31.8062C17.7302 31.4759 17.7233 31.1386 17.7518 30.7978L17.4132 32.4698H16.7895L16.4298 30.7978C16.4617 31.1845 16.469 31.4689 16.4583 31.8062L16.4298 32.7251H15.7812L15.9628 30.2581H16.7826L17.114 31.8946L17.4132 30.2581H18.2364L18.4218 32.7251H17.773Z" fill="#0F3858"/>
<path d="M19.5647 31.4614C19.8032 31.4614 19.9386 31.3514 19.9386 31.0781C19.9386 30.8437 19.8139 30.7199 19.5505 30.7199H19.3719V31.4614H19.5647ZM19.561 30.2581C20.213 30.2581 20.6121 30.528 20.6121 31.0746C20.6121 31.6498 20.2062 31.9301 19.6251 31.9301H19.3719V32.7251H18.7129V30.2581H19.561Z" fill="#0F3858"/>
<path d="M21.5302 31.6992V32.7251H20.8711V30.2581H21.5302V31.1921H22.1858V30.2581H22.8451V32.7251H22.1858V31.6992H21.5302Z" fill="#0F3858"/>
</svg>
