<svg width="39" height="39" viewBox="0 0 39 39" fill="none" xmlns="http://www.w3.org/2000/svg">
<path d="M4.35658 3.22388L24.5065 23.462L23.2066 24.7676L3.05664 4.53011L4.35658 3.22388Z" fill="#B0D2D3"/>
<path d="M4.44293 3.31026L3.29523 1.61385L1.28535 0.465407L0.798252 0.955231L0.310547 1.44446L1.4534 3.46314L3.14301 4.61589C3.14301 4.61589 5.48898 6.2976 5.80315 5.98205C6.11672 5.66588 4.44293 3.31026 4.44293 3.31026Z" fill="#5E9EA7"/>
<path d="M1.28535 0.465153L0.798252 0.954977L0.310547 1.4442L1.4534 3.46289L3.29522 1.6136L1.28535 0.465153Z" fill="#353F48"/>
<path d="M37.0843 31.7197C36.1576 30.7896 33.1194 27.7374 31.7056 26.3174C30.2918 24.898 28.8348 24.8925 26.1478 22.809C23.4846 20.7433 22.5786 18.609 22.5786 18.609L20.4768 20.7201L18.375 22.8305C18.375 22.8305 20.5006 23.741 22.5567 26.4159C24.6311 29.114 24.6366 30.5774 26.0504 31.9973C27.4642 33.4173 30.5031 36.4689 31.4291 37.3996C32.3552 38.3298 34.5813 39.8152 37.035 37.3507C39.4888 34.8862 38.0104 32.6498 37.0843 31.7197Z" fill="#353F48"/>
<path d="M36.4484 33.2023C35.5936 32.0006 26.8009 24.4824 25.5119 25.777C24.2229 27.0723 31.7084 35.9028 32.9048 36.762C34.1183 37.6322 35.2837 36.7229 35.8469 36.1572C36.4101 35.5915 37.3149 34.421 36.4484 33.2023Z" fill="#F49A22"/>
<path d="M22.5783 18.6094L22.1228 18.1519L20.2165 17.8474L19.5662 18.5005L18.1749 17.1025L16.875 18.4082L18.2669 19.8061L17.6166 20.4586L17.9198 22.374L18.3746 22.8308C18.3746 22.8308 18.9427 23.076 19.7726 23.6777L23.4216 20.0128C22.8224 19.1793 22.5783 18.6094 22.5783 18.6094Z" fill="#5E9EA7"/>
<path d="M2.81312 31.8427C4.12706 30.523 6.2575 30.523 7.57144 31.8427C8.88538 33.1624 8.88477 35.3015 7.57144 36.6218C6.2575 37.9409 4.12706 37.9409 2.81312 36.6218C1.49918 35.3015 1.49918 33.1624 2.81312 31.8427ZM2.06909 37.3691C3.79401 39.1016 6.59055 39.1016 8.31548 37.3691C10.2949 35.3804 9.94055 32.1539 13.3192 28.7605L26.6784 15.3429C30.057 11.9495 33.0806 11.8975 35.6488 10.7185C37.7872 9.11871 38.4965 4.6692 37.2167 3.28347L34.7057 7.73848C32.6581 7.62412 31.3581 6.77163 30.0558 5.14067L32.5132 0.552944C31.1834 0.333405 29.0597 1.03117 27.2337 4.04358C26.2193 6.88905 27.378 9.25814 23.9993 12.6522L10.6401 26.0698C7.26091 29.4632 4.04852 29.1067 2.06909 31.0954C0.344159 32.8279 0.344159 35.6366 2.06909 37.3691Z" fill="#B0D2D3"/>
<path d="M10.7608 27.5853C10.5459 27.3695 10.5459 27.0203 10.7608 26.805L24.7319 12.7722C24.9468 12.5563 25.2945 12.5563 25.5088 12.7722L26.5579 13.8252C26.7722 14.0411 26.7722 14.3903 26.5579 14.6055L12.5868 28.6384C12.3719 28.8543 12.0242 28.8543 11.8099 28.6384L10.7608 27.5853Z" fill="#5E9EA7"/>
<path d="M2.17063 34.3502C2.16758 34.2713 2.16758 34.193 2.17063 34.1147L2.76305 33.5784L2.51524 32.8116C2.55055 32.7443 2.59134 32.6782 2.63214 32.6134L3.41393 32.4459L3.58015 31.6606C3.6453 31.6197 3.71106 31.5787 3.77803 31.5432L4.54156 31.7921L5.07554 31.1971C5.15347 31.1941 5.23201 31.1941 5.30994 31.1971L5.84392 31.7921L6.60684 31.5432C6.67442 31.5787 6.73957 31.6197 6.80472 31.6606L6.97155 32.4459L7.75334 32.6134C7.79414 32.6782 7.83432 32.7443 7.87024 32.8116L7.62243 33.5784L8.21487 34.1147C8.21792 34.193 8.21792 34.2713 8.21487 34.3502L7.62243 34.8859L7.87024 35.6527C7.83432 35.7206 7.79414 35.786 7.75334 35.8515L6.97155 36.0184L6.80472 36.8043C6.73957 36.8452 6.67442 36.8856 6.60684 36.9211L5.84392 36.6728L5.30994 37.2672C5.23201 37.2709 5.15347 37.2709 5.07554 37.2672L4.54156 36.6728L3.77803 36.9211C3.71106 36.8856 3.6453 36.8452 3.58015 36.8043L3.41393 36.0184L2.63214 35.8515C2.59134 35.786 2.55055 35.7206 2.51524 35.6527L2.76305 34.8859L2.17063 34.3502ZM7.5719 36.622C8.88523 35.3017 8.88523 33.1626 7.5719 31.8429C6.25796 30.5232 4.12752 30.5232 2.81358 31.8429C1.49964 33.1626 1.49964 35.3017 2.81358 36.622C4.12752 37.9411 6.25796 37.9411 7.5719 36.622Z" fill="#353F48"/>
</svg>
