<svg width="39" height="39" viewBox="0 0 39 39" fill="none" xmlns="http://www.w3.org/2000/svg">
<path d="M25.1102 19.5205C25.1102 22.6086 22.6198 25.1118 19.5473 25.1118C16.4748 25.1118 13.9844 22.6086 13.9844 19.5205C13.9844 16.4329 16.4748 13.929 19.5473 13.929C22.6198 13.929 25.1102 16.4329 25.1102 19.5205Z" fill="#F49A22"/>
<path d="M23.6834 7.35207C22.571 9.69606 20.5416 12.4385 19.5472 12.4385C18.5529 12.4385 16.5235 9.69606 15.411 7.35207C14.3565 7.61593 13.8105 7.89265 13.8105 7.89265C13.8105 7.89265 17.898 15.8853 19.5472 15.8853C21.1964 15.8853 25.2839 7.89265 25.2839 7.89265C25.2839 7.89265 24.7386 7.61593 23.6834 7.35207Z" fill="#B0D2D3"/>
<path d="M11.1307 9.83562C12.5941 11.9763 13.9423 15.114 13.4451 15.9796C12.9479 16.8456 9.57036 17.2402 6.99448 17.0367C6.69457 18.087 6.66016 18.7003 6.66016 18.7003C6.66016 18.7003 15.5903 19.1382 16.4149 17.7031C17.2395 16.2674 12.3968 8.71285 12.3968 8.71285C12.3968 8.71285 11.8853 9.05014 11.1307 9.83562Z" fill="#B0D2D3"/>
<path d="M6.99448 22.0047C9.57036 21.8012 12.9479 22.1961 13.4451 23.0617C13.9423 23.9275 12.5941 27.0646 11.1307 29.2053C11.8853 29.9915 12.3968 30.3281 12.3968 30.3281C12.3968 30.3281 17.2395 22.7736 16.4149 21.3385C15.5903 19.9028 6.66016 20.3413 6.66016 20.3413C6.66016 20.3413 6.69457 20.9546 6.99448 22.0047Z" fill="#B0D2D3"/>
<path d="M15.411 31.6895C16.5235 29.3452 18.5529 26.603 19.5472 26.603C20.5416 26.603 22.571 29.3452 23.6834 31.6895C24.7386 31.4254 25.2839 31.1489 25.2839 31.1489C25.2839 31.1489 21.1964 23.1555 19.5472 23.1555C17.898 23.1555 13.8105 31.1489 13.8105 31.1489C13.8105 31.1489 14.3565 31.4254 15.411 31.6895Z" fill="#B0D2D3"/>
<path d="M27.9633 29.2053C26.4993 27.0646 25.1512 23.9275 25.6483 23.0617C26.1455 22.1961 29.5231 21.8012 32.0995 22.0047C32.3994 20.9546 32.4333 20.3413 32.4333 20.3413C32.4333 20.3413 23.5031 19.9028 22.6785 21.3385C21.8539 22.7736 26.6966 30.3281 26.6966 30.3281C26.6966 30.3281 27.2081 29.9915 27.9633 29.2053Z" fill="#B0D2D3"/>
<path d="M32.0995 17.0367C29.5231 17.2402 26.1455 16.8456 25.6483 15.9796C25.1512 15.114 26.4993 11.9763 27.9633 9.83562C27.2081 9.05014 26.6966 8.71285 26.6966 8.71285C26.6966 8.71285 21.8539 16.2674 22.6785 17.7031C23.5031 19.1382 32.4333 18.7003 32.4333 18.7003C32.4333 18.7003 32.3994 18.087 32.0995 17.0367Z" fill="#B0D2D3"/>
<path d="M19.5466 5.50986C11.8482 5.50986 5.60742 11.7826 5.60742 19.5204C5.60742 27.2582 11.8482 33.5308 19.5466 33.5308C27.245 33.5308 33.4857 27.2582 33.4857 19.5204C33.4857 11.7826 27.245 5.50986 19.5466 5.50986ZM32.1215 19.5204C32.1215 26.5008 26.4915 32.1596 19.5466 32.1596C12.6017 32.1596 6.97163 26.5008 6.97163 19.5204C6.97163 12.5404 12.6017 6.88162 19.5466 6.88162C26.4915 6.88162 32.1215 12.5404 32.1215 19.5204Z" fill="#5E9EA7"/>
<path d="M33.2208 19.5206C33.2208 27.1107 27.0988 33.2641 19.5471 33.2641C11.9955 33.2641 5.8735 27.1107 5.8735 19.5206C5.8735 11.9302 11.9955 5.77746 19.5471 5.77746C27.0988 5.77746 33.2208 11.9302 33.2208 19.5206ZM19.5471 0.66441C9.18627 0.66441 0.787109 9.10647 0.787109 19.5206C0.787109 29.9349 9.18627 38.377 19.5471 38.377C29.908 38.377 38.3072 29.9349 38.3072 19.5206C38.3072 9.10647 29.908 0.66441 19.5471 0.66441Z" fill="#292E30"/>
<path d="M37.095 19.5207C37.095 29.2614 29.2389 37.1574 19.5477 37.1574C9.85664 37.1574 2.00054 29.2614 2.00054 19.5207C2.00054 9.78045 9.85664 1.88369 19.5477 1.88369C29.2389 1.88369 37.095 9.78045 37.095 19.5207ZM19.5477 1.00806C9.37553 1.00806 1.12891 9.29635 1.12891 19.5207C1.12891 29.7454 9.37553 38.0337 19.5477 38.0337C29.72 38.0337 37.9666 29.7454 37.9666 19.5207C37.9666 9.29635 29.72 1.00806 19.5477 1.00806Z" fill="#292E30"/>
<path d="M34.8391 19.5203C34.8391 28.0084 27.9928 34.8896 19.5478 34.8896C11.1028 34.8896 4.25707 28.0084 4.25707 19.5203C4.25707 11.0325 11.1028 4.15113 19.5478 4.15113C27.9928 4.15113 34.8391 11.0325 34.8391 19.5203ZM19.5478 1.89227C9.86186 1.89227 2.00977 9.78477 2.00977 19.5203C2.00977 29.2562 9.86186 37.1484 19.5478 37.1484C29.2337 37.1484 37.0858 29.2562 37.0858 19.5203C37.0858 9.78477 29.2337 1.89227 19.5478 1.89227Z" fill="#0F3858"/>
<path d="M21.7515 19.5203C21.7515 20.7444 20.7647 21.7368 19.5467 21.7368C18.3293 21.7368 17.3418 20.7444 17.3418 19.5203C17.3418 18.2966 18.3293 17.3039 19.5467 17.3039C20.7647 17.3039 21.7515 18.2966 21.7515 19.5203Z" fill="#E75643"/>
<path d="M20.0297 1.03857H18.2285L18.3977 0.419435H19.8605L20.0297 1.03857Z" fill="#292E30"/>
<path d="M18.1059 1.0889L16.3145 1.27783L16.4182 0.644516L17.8731 0.490622L18.1059 1.0889Z" fill="#292E30"/>
<path d="M16.1952 1.34178L14.4336 1.71826L14.4709 1.07728L15.9022 0.771283L16.1952 1.34178Z" fill="#292E30"/>
<path d="M14.3247 1.79351L12.6113 2.35254L12.582 1.71115L13.9732 1.25703L14.3247 1.79351Z" fill="#292E30"/>
<path d="M12.5091 2.43906L10.8633 3.17578L10.7676 2.54062L12.1037 1.94286L12.5091 2.43906Z" fill="#292E30"/>
<path d="M10.7722 3.27234L9.21249 4.17725L9.05078 3.55603L10.3175 2.82116L10.7722 3.27234Z" fill="#292E30"/>
<path d="M9.12972 4.28313L7.67262 5.34717L7.44727 4.7467L8.63084 3.88214L9.12972 4.28313Z" fill="#292E30"/>
<path d="M7.60169 5.46138L6.26328 6.67285L5.97656 6.09873L7.0638 5.11486L7.60169 5.46138Z" fill="#292E30"/>
<path d="M6.2043 6.79342L4.99893 8.13867L4.6543 7.59809L5.63316 6.50523L6.2043 6.79342Z" fill="#292E30"/>
<path d="M4.95377 8.26487L3.8952 9.72949L3.49609 9.22805L4.35568 8.03842L4.95377 8.26487Z" fill="#292E30"/>
<path d="M3.86493 9.85977L2.96462 11.4277L2.51562 10.9711L3.24676 9.69724L3.86493 9.85977Z" fill="#292E30"/>
<path d="M2.94534 11.5606L2.21249 13.2144L1.71875 12.8073L2.31341 11.4638L2.94534 11.5606Z" fill="#292E30"/>
<path d="M2.20925 13.3486L1.65244 15.0703L1.11914 14.7168L1.57102 13.3187L2.20925 13.3486Z" fill="#292E30"/>
<path d="M1.66033 15.204L1.28587 16.9746L0.71875 16.6794L1.02268 15.2415L1.66033 15.204Z" fill="#292E30"/>
<path d="M1.31067 17.1065L1.12258 18.9072L0.527344 18.6737L0.680461 17.2114L1.31067 17.1065Z" fill="#292E30"/>
<path d="M1.15941 19.0362V20.8467L0.542969 20.6766V19.2063L1.15941 19.0362Z" fill="#292E30"/>
<path d="M1.2099 20.9703L1.39856 22.771L0.767778 22.6668L0.615234 21.2044L1.2099 20.9703Z" fill="#292E30"/>
<path d="M1.46028 22.8891L1.83473 24.6597L1.1965 24.6223L0.892578 23.184L1.46028 22.8891Z" fill="#292E30"/>
<path d="M1.91025 24.7708L2.46706 26.4925L1.82883 26.5225L1.37695 25.1236L1.91025 24.7708Z" fill="#292E30"/>
<path d="M2.5529 26.5954L3.28576 28.2489L2.65383 28.3457L2.05859 27.0022L2.5529 26.5954Z" fill="#292E30"/>
<path d="M3.38259 28.3416L4.28346 29.9099L3.66529 30.0718L2.93359 28.7986L3.38259 28.3416Z" fill="#292E30"/>
<path d="M4.38739 29.992L5.44596 31.4571L4.84786 31.6831L3.98828 30.4939L4.38739 29.992Z" fill="#292E30"/>
<path d="M5.55948 31.5272L6.76427 32.8725L6.19313 33.1606L5.21484 32.068L5.55948 31.5272Z" fill="#292E30"/>
<path d="M6.88633 32.9314L8.22472 34.1423L7.68685 34.4893L6.59961 33.5053L6.88633 32.9314Z" fill="#292E30"/>
<path d="M8.35037 34.1876L9.80747 35.2523L9.30858 35.6528L8.125 34.789L8.35037 34.1876Z" fill="#292E30"/>
<path d="M9.9371 35.2842L11.4969 36.1897L11.0421 36.6411L9.77539 35.9055L9.9371 35.2842Z" fill="#292E30"/>
<path d="M11.6276 36.208L13.2728 36.944L12.8673 37.4409L11.5312 36.8427L11.6276 36.208Z" fill="#292E30"/>
<path d="M13.4068 36.9489L15.1196 37.5079L14.7681 38.0444L13.377 37.5904L13.4068 36.9489Z" fill="#292E30"/>
<path d="M15.2539 37.4981L17.0155 37.8745L16.7219 38.4453L15.2912 38.1398L15.2539 37.4981Z" fill="#292E30"/>
<path d="M17.1465 37.8509L18.9379 38.0404L18.7051 38.6382L17.2503 38.4849L17.1465 37.8509Z" fill="#292E30"/>
<path d="M19.0645 38.0027H20.8656L20.6965 38.6216H19.2342L19.0645 38.0027Z" fill="#292E30"/>
<path d="M20.9902 37.9521L22.7817 37.763L22.6779 38.3965L21.2231 38.5503L20.9902 37.9521Z" fill="#292E30"/>
<path d="M22.8984 37.6998L24.66 37.3236L24.6228 37.9646L23.192 38.2705L22.8984 37.6998Z" fill="#292E30"/>
<path d="M24.7715 37.2479L26.4844 36.6889L26.5136 37.3305L25.1224 37.7847L24.7715 37.2479Z" fill="#292E30"/>
<path d="M26.5859 36.602L28.2311 35.866L28.3275 36.5004L26.9908 37.0986L26.5859 36.602Z" fill="#292E30"/>
<path d="M28.3242 35.7688L29.884 34.864L30.0457 35.4853L28.779 36.2202L28.3242 35.7688Z" fill="#292E30"/>
<path d="M29.9648 34.758L31.4219 33.6939L31.6473 34.2946L30.4637 35.1592L29.9648 34.758Z" fill="#292E30"/>
<path d="M31.4941 33.58L32.8326 32.3683L33.1193 32.9424L32.032 33.9263L31.4941 33.58Z" fill="#292E30"/>
<path d="M32.8906 32.2479L34.0954 30.9027L34.4401 31.4435L33.4612 32.5356L32.8906 32.2479Z" fill="#292E30"/>
<path d="M34.1406 30.7765L35.1992 29.3119L35.5983 29.8133L34.7387 31.0029L34.1406 30.7765Z" fill="#292E30"/>
<path d="M35.2305 29.1817L36.1313 27.614L36.5803 28.0706L35.8486 29.3438L35.2305 29.1817Z" fill="#292E30"/>
<path d="M36.1504 27.4805L36.8832 25.8269L37.377 26.2337L36.7823 27.5767L36.1504 27.4805Z" fill="#292E30"/>
<path d="M36.8867 25.6927L37.4435 23.971L37.9774 24.3239L37.525 25.7227L36.8867 25.6927Z" fill="#292E30"/>
<path d="M37.4336 23.8374L37.8081 22.0662L38.3757 22.3614L38.0712 23.8001L37.4336 23.8374Z" fill="#292E30"/>
<path d="M37.7852 21.9341L37.9732 20.134L38.5685 20.3675L38.4154 21.8296L37.7852 21.9341Z" fill="#292E30"/>
<path d="M37.9355 20.0049V18.1947L38.5514 18.3647V19.8349L37.9355 20.0049Z" fill="#292E30"/>
<path d="M37.8859 18.0708L37.6973 16.2703L38.328 16.3746L38.4806 17.8369L37.8859 18.0708Z" fill="#292E30"/>
<path d="M37.6342 16.1519L37.2598 14.3807L37.8974 14.4187L38.2013 15.8567L37.6342 16.1519Z" fill="#292E30"/>
<path d="M37.1838 14.27L36.627 12.5486L37.2652 12.5186L37.7176 13.9168L37.1838 14.27Z" fill="#292E30"/>
<path d="M36.5428 12.4458L35.8105 10.7916L36.4419 10.6952L37.0371 12.0382L36.5428 12.4458Z" fill="#292E30"/>
<path d="M35.7134 10.6992L34.8125 9.13131L35.4307 8.96895L36.1624 10.2426L35.7134 10.6992Z" fill="#292E30"/>
<path d="M34.7076 9.04883L33.6484 7.58427L34.2465 7.35775L35.1061 8.54744L34.7076 9.04883Z" fill="#292E30"/>
<path d="M33.5354 7.51367L32.3301 6.16802L32.9012 5.88024L33.8801 6.97246L33.5354 7.51367Z" fill="#292E30"/>
<path d="M32.2101 6.10986L30.8711 4.89833L31.409 4.55187L32.4962 5.53574L32.2101 6.10986Z" fill="#292E30"/>
<path d="M30.7462 4.85303L29.2891 3.78899L29.7885 3.38777L30.9715 4.25233L30.7462 4.85303Z" fill="#292E30"/>
<path d="M29.1594 3.75684L27.5996 2.85176L28.0543 2.40051L29.3211 3.13539L29.1594 3.75684Z" fill="#292E30"/>
<path d="M27.4661 2.83301L25.8203 2.09704L26.2257 1.60038L27.5618 2.19854L27.4661 2.83301Z" fill="#292E30"/>
<path d="M25.6894 2.09277L23.9766 1.53369L24.3275 0.996977L25.7187 1.45133L25.6894 2.09277Z" fill="#292E30"/>
<path d="M23.8423 1.54297L22.0801 1.16648L22.3737 0.596451L23.8044 0.901927L23.8423 1.54297Z" fill="#292E30"/>
<path d="M21.9496 1.18994L20.1582 1.00083L20.391 0.402619L21.8458 0.556509L21.9496 1.18994Z" fill="#292E30"/>
</svg>
