<svg width="221" height="41" viewBox="0 0 221 41" fill="none" xmlns="http://www.w3.org/2000/svg">
<g filter="url(#filter0_d_358_790)">
<g clip-path="url(#clip0_358_790)">
<path d="M38.6875 7H52.4375L40.5625 27H26.8125L38.6875 7Z" fill="#FFEACA"/>
<path d="M26.1875 7H36.1875L24.3125 27H14.3125L26.1875 7Z" fill="#FFCA79"/>
<path d="M16.1875 7H23.6875L11.8125 27H4.3125L16.1875 7Z" fill="#FDB03C"/>
</g>
<path d="M54.404 27L62.477 8.1H65.636L73.655 27H70.496L65.366 14.958C65.276 14.742 65.15 14.427 64.988 14.013C64.844 13.581 64.682 13.122 64.502 12.636C64.322 12.15 64.151 11.691 63.989 11.259C63.827 10.809 63.701 10.458 63.611 10.206L64.34 10.179C64.214 10.539 64.07 10.935 63.908 11.367C63.764 11.799 63.602 12.24 63.422 12.69C63.26 13.14 63.098 13.572 62.936 13.986C62.774 14.382 62.63 14.742 62.504 15.066L57.401 27H54.404ZM57.941 22.41L59.075 19.602H68.687L69.632 22.41H57.941ZM78.7747 27.27C77.6767 27.27 76.7137 27.018 75.8857 26.514C75.0577 25.992 74.4097 25.263 73.9417 24.327C73.4917 23.373 73.2667 22.239 73.2667 20.925V12.825H76.0477V20.061C76.0477 21.051 76.1917 21.897 76.4797 22.599C76.7677 23.283 77.1997 23.805 77.7757 24.165C78.3517 24.525 79.0627 24.705 79.9087 24.705C80.5207 24.705 81.0877 24.606 81.6097 24.408C82.1317 24.21 82.5817 23.931 82.9597 23.571C83.3557 23.211 83.6617 22.779 83.8777 22.275C84.1117 21.771 84.2287 21.213 84.2287 20.601V12.825H87.0097V27H84.2287V24.03L84.7147 23.706C84.4987 24.318 84.1117 24.903 83.5537 25.461C82.9957 26.001 82.3117 26.442 81.5017 26.784C80.6917 27.108 79.7827 27.27 78.7747 27.27ZM90.8675 27V8.883H93.6485V27H90.8675ZM87.2765 15.525V12.825H97.8065V15.525H87.2765ZM104.945 27.27C103.379 27.27 101.984 26.955 100.76 26.325C99.554 25.677 98.6 24.804 97.898 23.706C97.196 22.59 96.845 21.321 96.845 19.899C96.845 18.477 97.196 17.217 97.898 16.119C98.6 15.003 99.554 14.13 100.76 13.5C101.984 12.852 103.379 12.528 104.945 12.528C106.493 12.528 107.87 12.852 109.076 13.5C110.3 14.13 111.263 15.003 111.965 16.119C112.667 17.217 113.018 18.477 113.018 19.899C113.018 21.321 112.667 22.59 111.965 23.706C111.263 24.804 110.3 25.677 109.076 26.325C107.87 26.955 106.493 27.27 104.945 27.27ZM104.945 24.732C105.935 24.732 106.826 24.525 107.618 24.111C108.428 23.679 109.058 23.103 109.508 22.383C109.976 21.645 110.201 20.817 110.183 19.899C110.201 18.963 109.976 18.135 109.508 17.415C109.058 16.677 108.428 16.101 107.618 15.687C106.826 15.273 105.935 15.066 104.945 15.066C103.955 15.066 103.055 15.282 102.245 15.714C101.435 16.128 100.796 16.695 100.328 17.415C99.878 18.135 99.662 18.963 99.68 19.899C99.662 20.817 99.878 21.645 100.328 22.383C100.796 23.103 101.435 23.679 102.245 24.111C103.055 24.525 103.955 24.732 104.945 24.732ZM116.041 21.681L115.96 18.387L127.462 8.1H131.512L116.041 21.681ZM113.773 27V8.1H116.689V27H113.773ZM127.705 27L120.037 17.118L122.062 15.066L131.458 27H127.705ZM137.729 27.27C136.163 27.27 134.768 26.955 133.544 26.325C132.338 25.677 131.384 24.804 130.682 23.706C129.98 22.59 129.629 21.321 129.629 19.899C129.629 18.477 129.98 17.217 130.682 16.119C131.384 15.003 132.338 14.13 133.544 13.5C134.768 12.852 136.163 12.528 137.729 12.528C139.277 12.528 140.654 12.852 141.86 13.5C143.084 14.13 144.047 15.003 144.749 16.119C145.451 17.217 145.802 18.477 145.802 19.899C145.802 21.321 145.451 22.59 144.749 23.706C144.047 24.804 143.084 25.677 141.86 26.325C140.654 26.955 139.277 27.27 137.729 27.27ZM137.729 24.732C138.719 24.732 139.61 24.525 140.402 24.111C141.212 23.679 141.842 23.103 142.292 22.383C142.76 21.645 142.985 20.817 142.967 19.899C142.985 18.963 142.76 18.135 142.292 17.415C141.842 16.677 141.212 16.101 140.402 15.687C139.61 15.273 138.719 15.066 137.729 15.066C136.739 15.066 135.839 15.282 135.029 15.714C134.219 16.128 133.58 16.695 133.112 17.415C132.662 18.135 132.446 18.963 132.464 19.899C132.446 20.817 132.662 21.645 133.112 22.383C133.58 23.103 134.219 23.679 135.029 24.111C135.839 24.525 136.739 24.732 137.729 24.732ZM146.287 27V12.825H149.095V16.281L148.366 16.389C148.51 15.957 148.762 15.516 149.122 15.066C149.482 14.616 149.932 14.211 150.472 13.851C151.012 13.473 151.606 13.167 152.254 12.933C152.92 12.699 153.631 12.582 154.387 12.582C155.269 12.582 156.061 12.726 156.763 13.014C157.465 13.302 158.032 13.743 158.464 14.337C158.914 14.931 159.211 15.669 159.355 16.551L158.707 16.389L158.896 15.93C159.112 15.552 159.409 15.174 159.787 14.796C160.183 14.4 160.642 14.04 161.164 13.716C161.704 13.374 162.28 13.104 162.892 12.906C163.504 12.69 164.134 12.582 164.782 12.582C166.042 12.582 167.059 12.825 167.833 13.311C168.607 13.797 169.174 14.49 169.534 15.39C169.894 16.29 170.074 17.361 170.074 18.603V27H167.266V18.873C167.266 18.063 167.149 17.388 166.915 16.848C166.699 16.29 166.357 15.867 165.889 15.579C165.421 15.291 164.809 15.147 164.053 15.147C163.423 15.147 162.829 15.255 162.271 15.471C161.731 15.669 161.254 15.957 160.84 16.335C160.426 16.695 160.102 17.118 159.868 17.604C159.652 18.09 159.544 18.612 159.544 19.17V27H156.736V18.819C156.736 18.063 156.61 17.415 156.358 16.875C156.106 16.317 155.728 15.894 155.224 15.606C154.72 15.3 154.081 15.147 153.307 15.147C152.695 15.147 152.137 15.255 151.633 15.471C151.129 15.687 150.679 15.975 150.283 16.335C149.905 16.695 149.608 17.1 149.392 17.55C149.194 17.982 149.095 18.432 149.095 18.9V27H146.287ZM171.993 32.94V12.825H174.801V16.065L174.369 15.822C174.495 15.3 174.837 14.796 175.395 14.31C175.971 13.806 176.673 13.392 177.501 13.068C178.347 12.744 179.229 12.582 180.147 12.582C181.605 12.582 182.883 12.897 183.981 13.527C185.079 14.157 185.943 15.021 186.573 16.119C187.203 17.217 187.518 18.477 187.518 19.899C187.518 21.303 187.203 22.563 186.573 23.679C185.961 24.777 185.097 25.65 183.981 26.298C182.883 26.928 181.632 27.243 180.228 27.243C179.238 27.243 178.302 27.072 177.42 26.73C176.538 26.37 175.8 25.929 175.206 25.407C174.612 24.885 174.243 24.363 174.099 23.841L174.801 23.463V32.94H171.993ZM179.769 24.678C180.759 24.678 181.632 24.471 182.388 24.057C183.144 23.643 183.738 23.076 184.17 22.356C184.62 21.636 184.845 20.817 184.845 19.899C184.845 18.981 184.629 18.171 184.197 17.469C183.765 16.749 183.171 16.182 182.415 15.768C181.659 15.354 180.777 15.147 179.769 15.147C178.779 15.147 177.897 15.354 177.123 15.768C176.367 16.164 175.764 16.722 175.314 17.442C174.882 18.162 174.666 18.981 174.666 19.899C174.666 20.817 174.882 21.636 175.314 22.356C175.764 23.076 176.367 23.643 177.123 24.057C177.897 24.471 178.779 24.678 179.769 24.678ZM188.172 27V7.02H190.953V27H188.172ZM199.609 27.27C197.989 27.27 196.549 26.964 195.289 26.352C194.029 25.722 193.039 24.867 192.319 23.787C191.617 22.707 191.266 21.465 191.266 20.061C191.266 18.909 191.473 17.874 191.887 16.956C192.301 16.038 192.868 15.246 193.588 14.58C194.326 13.914 195.19 13.401 196.18 13.041C197.17 12.681 198.232 12.501 199.366 12.501C200.392 12.501 201.346 12.672 202.228 13.014C203.128 13.356 203.911 13.833 204.577 14.445C205.243 15.057 205.756 15.786 206.116 16.632C206.494 17.46 206.674 18.378 206.656 19.386L206.629 20.682H193.534L192.913 18.468H204.226L203.821 18.819V18.171C203.749 17.577 203.497 17.046 203.065 16.578C202.633 16.11 202.093 15.741 201.445 15.471C200.797 15.201 200.104 15.066 199.366 15.066C198.286 15.066 197.341 15.237 196.531 15.579C195.739 15.921 195.118 16.452 194.668 17.172C194.236 17.874 194.02 18.774 194.02 19.872C194.02 20.862 194.272 21.717 194.776 22.437C195.28 23.157 195.982 23.715 196.882 24.111C197.782 24.507 198.817 24.705 199.987 24.705C200.995 24.705 201.868 24.561 202.606 24.273C203.344 23.985 204.046 23.589 204.712 23.085L206.035 25.11C205.567 25.506 204.982 25.875 204.28 26.217C203.578 26.541 202.822 26.802 202.012 27C201.22 27.18 200.419 27.27 199.609 27.27ZM209.4 27V8.883H212.181V27H209.4ZM205.809 15.525V12.825H216.339V15.525H205.809Z" fill="#F2F2F2"/>
</g>
<defs>
<filter id="filter0_d_358_790" x="0" y="7" width="220.338" height="33.9399" filterUnits="userSpaceOnUse" color-interpolation-filters="sRGB">
<feFlood flood-opacity="0" result="BackgroundImageFix"/>
<feColorMatrix in="SourceAlpha" type="matrix" values="0 0 0 0 0 0 0 0 0 0 0 0 0 0 0 0 0 0 127 0" result="hardAlpha"/>
<feOffset dy="4"/>
<feGaussianBlur stdDeviation="2"/>
<feComposite in2="hardAlpha" operator="out"/>
<feColorMatrix type="matrix" values="0 0 0 0 0 0 0 0 0 0 0 0 0 0 0 0 0 0 0.25 0"/>
<feBlend mode="normal" in2="BackgroundImageFix" result="effect1_dropShadow_358_790"/>
<feBlend mode="normal" in="SourceGraphic" in2="effect1_dropShadow_358_790" result="shape"/>
</filter>
<clipPath id="clip0_358_790">
<rect width="48.75" height="20" fill="white" transform="translate(4 7)"/>
</clipPath>
</defs>
</svg>
