<svg width="39" height="39" viewBox="0 0 39 39" fill="none" xmlns="http://www.w3.org/2000/svg">
<path d="M38.5988 33.2246H0.404297V10.5792H38.5988V33.2246Z" fill="#0F3858"/>
<path d="M39 35.1001H0V33.6797C0 33.4282 0.202492 33.2247 0.452791 33.2247H38.5466C38.7969 33.2247 39 33.4282 39 33.6797V35.1001Z" fill="#415F79"/>
<path d="M39 8.70371H0V10.1235C0 10.3751 0.202492 10.5791 0.452791 10.5791H38.5466C38.7969 10.5791 39 10.3751 39 10.1235V8.70371Z" fill="#415F79"/>
<path d="M38.5988 7.1919H0.404297V8.72363H38.5988V7.1919Z" fill="#34476C"/>
<path d="M38.5821 6.34745H0.417969V7.19189H38.5821V6.34745Z" fill="#0F3858"/>
<path d="M29.0487 6.34745H9.95117V7.19189H29.0487V6.34745Z" fill="#5E9EA7"/>
<path d="M36.8358 6.75272H30.873V7.19189H36.8358V6.75272Z" fill="#5E9EA7"/>
<path d="M18.3517 17.1102H22.0129L19.502 21.4358H22.4088L16.7256 26.6929L18.7725 21.4358H16.5957L18.3517 17.1102Z" fill="#E75643"/>
<path d="M35.8365 2.94732H31.8683L31.5156 6.75293H36.1892L35.8365 2.94732Z" fill="#F49A22"/>
<path d="M7.13145 2.94732H3.16322L2.81055 6.75293H7.48412L7.13145 2.94732Z" fill="#B0D2D3"/>
<path d="M2.16602 6.75272H8.12876V7.19189H2.16602V6.75272Z" fill="#5E9EA7"/>
<path d="M5.62443 8.72363H4.66992V7.1919H5.62443V8.72363Z" fill="#0F3858"/>
<path d="M6.00666 8.72363H5.62305V7.1919H6.00666V8.72363Z" fill="#415F79"/>
<path d="M4.66933 8.72363H4.28516V7.1919H4.66933V8.72363Z" fill="#415F79"/>
<path d="M19.9779 8.72363H19.0234V7.1919H19.9779V8.72363Z" fill="#0F3858"/>
<path d="M20.3627 8.72363H19.9785V7.1919H20.3627V8.72363Z" fill="#415F79"/>
<path d="M19.0248 8.72363H18.6406V7.1919H19.0248V8.72363Z" fill="#415F79"/>
<path d="M34.3295 8.72363H33.375V7.1919H34.3295V8.72363Z" fill="#0F3858"/>
<path d="M34.7142 8.72363H34.3301V7.1919H34.7142V8.72363Z" fill="#415F79"/>
<path d="M33.3764 8.72363H32.9922V7.1919H33.3764V8.72363Z" fill="#415F79"/>
</svg>
