<svg width="39" height="39" viewBox="0 0 39 39" fill="none" xmlns="http://www.w3.org/2000/svg">
<path d="M31.7096 20.8022H7.63086V18.5751H31.7096V20.8022Z" fill="#B0D2D3"/>
<path d="M6.43945 17.3884V21.9883L7.63051 20.8019V18.5747L6.43945 17.3884Z" fill="#5E9EA7"/>
<path d="M0.466797 21.6218C0.466797 21.8243 0.631491 21.9883 0.834912 21.9883H6.43881V17.3884H0.834912C0.631491 17.3884 0.466797 17.5524 0.466797 17.7549V21.6218Z" fill="#B0D2D3"/>
<path d="M32.9 17.3884V21.9883L31.709 20.8019V18.5747L32.9 17.3884Z" fill="#5E9EA7"/>
<path d="M38.5049 21.9883H32.9004V17.3884H38.5049C38.7077 17.3884 38.8724 17.5524 38.8724 17.7549V21.6218C38.8724 21.8243 38.7077 21.9883 38.5049 21.9883Z" fill="#B0D2D3"/>
<path d="M18.5508 31.6748V7.70241H20.7884V31.6748H18.5508Z" fill="#B0D2D3"/>
<path d="M21.9791 6.51627H17.3594L18.5504 7.70264H20.7881L21.9791 6.51627Z" fill="#5E9EA7"/>
<path d="M17.7269 0.57106C17.5241 0.57106 17.3594 0.735025 17.3594 0.936972V6.51611H21.9791V0.936972C21.9791 0.735025 21.8144 0.57106 21.6116 0.57106H17.7269Z" fill="#B0D2D3"/>
<path d="M21.9791 32.8608H17.3594L18.5504 31.6751H20.7881L21.9791 32.8608Z" fill="#5E9EA7"/>
<path d="M17.3594 38.4401V32.861H21.9791V38.4401C21.9791 38.6427 21.8144 38.8066 21.6116 38.8066H17.7269C17.5241 38.8066 17.3594 38.6427 17.3594 38.4401Z" fill="#B0D2D3"/>
<path d="M22.8973 19.6887C22.8973 21.4625 21.4526 22.9009 19.6704 22.9009C17.8881 22.9009 16.4434 21.4625 16.4434 19.6887C16.4434 17.9143 17.8881 16.476 19.6704 16.476C21.4526 16.476 22.8973 17.9143 22.8973 19.6887Z" fill="#5E9EA7"/>
<path d="M22.057 19.6887C22.057 21.001 20.9879 22.0654 19.6691 22.0654C18.3504 22.0654 17.2812 21.001 17.2812 19.6887C17.2812 18.3757 18.3504 17.3113 19.6691 17.3113C20.9879 17.3113 22.057 18.3757 22.057 19.6887Z" fill="#0F3858"/>
<path d="M21.8263 19.6887C21.8263 20.8745 20.8601 21.8359 19.669 21.8359C18.478 21.8359 17.5117 20.8745 17.5117 19.6887C17.5117 18.5024 18.478 17.541 19.669 17.541C20.8601 17.541 21.8263 18.5024 21.8263 19.6887Z" fill="#B0D2D3"/>
<path d="M21.4727 19.6889C21.4727 20.6802 20.6654 21.4834 19.6697 21.4834C18.6739 21.4834 17.8672 20.6802 17.8672 19.6889C17.8672 18.6976 18.6739 17.8938 19.6697 17.8938C20.6654 17.8938 21.4727 18.6976 21.4727 19.6889Z" fill="#E75643"/>
</svg>
