<svg width="39" height="39" viewBox="0 0 39 39" fill="none" xmlns="http://www.w3.org/2000/svg">
<path d="M38.9994 35.4443H0V3.93366C0 2.25582 1.36114 0.89497 3.04072 0.89497H35.9594C37.6382 0.89497 38.9994 2.25582 38.9994 3.93366V35.4443Z" fill="#0F3858"/>
<path d="M3.80038 0.895153H3.04072C1.36114 0.895153 0 2.256 0 3.93385V35.4302H3.80038V0.895153Z" fill="#B0D2D3"/>
<path d="M35.9608 0.895153H35.2012V35.4302H39.0009V3.93385C39.0009 2.256 37.6397 0.895153 35.9608 0.895153Z" fill="#B0D2D3"/>
<path d="M12.7024 35.4302H11.8926V0.895153H12.7024V35.4302Z" fill="#5E9EA7"/>
<path d="M29.8299 35.4302H17.1855V0.895153H29.8299V35.4302Z" fill="#5E9EA7"/>
<path d="M36.2701 38.1035H2.72852V35.4445H36.2701V38.1035Z" fill="#B0D2D3"/>
<path d="M36.2701 39H2.72852V38.1036H36.2701V39Z" fill="#415F79"/>
<path d="M6.46464 17.4265C6.46464 18.5687 6.85176 19.0163 7.47128 19.0163C8.10398 19.0163 8.47237 18.5687 8.47237 17.4211C8.47237 16.2861 8.11023 15.8313 7.47128 15.8313C6.83927 15.8313 6.46464 16.2861 6.46464 17.4265ZM9.32568 17.4211C9.32568 18.8203 8.60696 19.6362 7.47128 19.6362C6.3356 19.6362 5.61133 18.8443 5.61133 17.4265C5.61133 16.0345 6.3356 15.2123 7.47128 15.2123C8.60696 15.2123 9.32568 16.0039 9.32568 17.4211Z" fill="#F49A22"/>
<path d="M10.084 19.5439V15.3044H10.9V19.5439H10.084Z" fill="#F49A22"/>
<path d="M14.4033 18.8813L14.3117 19.5439H11.8926V15.3044H12.7029V18.8813H14.4033Z" fill="#F49A22"/>
<path d="M17.3435 15.9057V17.1756H18.6512V17.7768H17.3435V19.5439H16.5332V15.3044H18.9336L18.8476 15.9057H17.3435Z" fill="#F49A22"/>
<path d="M19.5332 19.5439V15.3044H20.3492V19.5439H19.5332Z" fill="#F49A22"/>
<path d="M23.8532 18.8813L23.7609 19.5439H21.3418V15.3044H22.1528V18.8813H23.8532Z" fill="#F49A22"/>
<path d="M25.4292 15.9484V19.5439H24.6126V15.9484H23.4707V15.3044H26.6203L26.5343 15.9484H25.4292Z" fill="#F49A22"/>
<path d="M27.9587 15.9057V17.0897H29.3213V17.691H27.9587V18.9367H29.6349V19.5439H27.1484V15.3044H29.6099L29.5239 15.9057H27.9587Z" fill="#F49A22"/>
<path d="M31.7144 17.2617C32.2173 17.2617 32.4997 17.0591 32.4997 16.5502C32.4997 16.0901 32.2361 15.8929 31.6464 15.8929H31.2107V17.2617H31.7144ZM31.2107 17.8448V19.5439H30.4004V15.3044H31.6651C32.7765 15.3044 33.3475 15.7093 33.3475 16.5502C33.3475 17.1265 33.0644 17.4705 32.4879 17.6971L33.5986 19.5439H32.6655L31.7262 17.8448H31.2107Z" fill="#F49A22"/>
</svg>
