<svg width="39" height="40" viewBox="0 0 39 40" fill="none" xmlns="http://www.w3.org/2000/svg">
<path d="M12.4541 4.52624H6.35938V10.3291H12.4541V4.52624Z" fill="#0F3858"/>
<path d="M28.7255 7.3912C27.4809 5.5261 22.2372 3.28653 19.515 3.60131C18.8543 3.67744 17.5135 4.71209 16.5245 5.54781C16.2659 5.76609 16.1421 6.10673 16.1994 6.44135C16.2566 6.77603 16.4865 7.054 16.8028 7.17332L26.2761 10.7426C26.7475 10.9204 27.2798 10.7554 27.5693 10.3405C28.1897 9.45222 29.1067 7.96224 28.7255 7.3912ZM29.0251 3.86055C32.1143 5.35054 34.0861 8.49892 34.0861 11.9457V11.9493V36.4563C34.0861 37.9831 32.8561 39.2202 31.3391 39.2202H7.42672C5.90951 39.2202 4.67969 37.9831 4.67969 36.4563V14.2462C4.67969 12.7638 5.28701 11.3459 6.358 10.3288C9.53531 7.31026 16.3168 1.12058 18.6153 0.998329C21.8644 0.825695 25.8933 2.34951 29.0251 3.86055Z" fill="#5E9EA7"/>
<path d="M34.0871 21.3045L29.135 19.6929C28.5706 19.5091 27.9922 19.9326 27.9922 20.5295V22.3508L34.0871 24.3345V21.3045Z" fill="#0F3858"/>
<path d="M29.135 19.6927C28.5706 19.5089 27.9922 19.9324 27.9922 20.5293V20.8882C27.9922 20.2911 28.5706 19.8675 29.135 20.0513L34.0871 21.6636V21.3043L29.135 19.6927Z" fill="#292E30"/>
<path d="M12.4541 4.0408H6.35938V4.52588H12.4541V4.0408Z" fill="#292E30"/>
<path d="M12.4541 2.29067C12.4541 1.89859 12.1383 1.58065 11.7489 1.58065H7.06458C6.67496 1.58065 6.35938 1.89859 6.35938 2.29067V4.04102H12.4541V2.29067Z" fill="#415F79"/>
<path d="M34.0871 26.9585L29.135 25.3465C28.5706 25.1626 27.9922 25.5863 27.9922 26.1831V28.0043L34.0871 29.9883V26.9585Z" fill="#0F3858"/>
<path d="M34.0871 32.6125L29.135 31.0007C28.5706 30.8172 27.9922 31.24 27.9922 31.8371V33.6588L34.0871 35.6421V32.6125Z" fill="#0F3858"/>
<path d="M29.135 25.3479C28.5706 25.1643 27.9922 25.5872 27.9922 26.1843V26.543C27.9922 25.9461 28.5706 25.523 29.135 25.7068L34.0871 27.3184V26.9597L29.135 25.3479Z" fill="#292E30"/>
<path d="M29.135 31.0029C28.5706 30.8191 27.9922 31.2427 27.9922 31.8395V32.1985C27.9922 31.6016 28.5706 31.1778 29.135 31.3616L34.0871 32.9731V32.6145L29.135 31.0029Z" fill="#292E30"/>
<path d="M27.5696 10.3404C27.2802 10.7553 26.7479 10.9203 26.2765 10.7425L16.8031 7.17323C16.4869 7.05391 16.2569 6.77594 16.1997 6.44126C16.1425 6.10665 16.2663 5.766 16.5248 5.54772C17.5138 4.71199 18.8547 3.67735 19.5154 3.60122C22.2376 3.28644 27.4813 5.52601 28.7258 7.39111C29.1071 7.96215 28.1901 9.45213 27.5696 10.3404ZM34.0865 11.9456C34.0865 8.49884 32.1147 5.35045 29.0255 3.86046C25.8936 2.34941 21.8648 0.825609 18.6157 0.998243C16.7931 1.09539 12.1527 5.00688 8.72461 8.12717L34.0865 17.7188V11.9492V11.9456Z" fill="#B0D2D3"/>
<path d="M26.3403 34.1799C26.3403 35.27 25.4622 36.1538 24.3789 36.1538H10.2172C9.13422 36.1538 8.25586 35.27 8.25586 34.1799V16.3189C8.25586 15.2287 9.13422 14.345 10.2172 14.345H24.3789C25.4622 14.345 26.3403 15.2287 26.3403 16.3189V34.1799Z" fill="#B0D2D3"/>
<path d="M17.2979 16.601C17.2979 16.601 10.9258 23.518 10.9258 28.0803C10.9258 31.6215 13.7787 34.4917 17.2979 34.4917C20.8172 34.4917 23.67 31.6215 23.67 28.0803C23.67 23.518 17.2979 16.601 17.2979 16.601Z" fill="#F49A22"/>
<path d="M12.3649 25.9663L12.2777 24.557C12.2486 24.0596 12.2243 23.5382 12.234 23.1825L11.6233 25.6006H11.0178L10.3683 23.1772C10.3876 23.6312 10.378 24.0941 10.349 24.5769L10.2667 25.9663H9.64648L9.91275 22.5973H10.7368L11.3328 24.9573L11.8948 22.5973H12.7284L12.9899 25.9663H12.3649Z" fill="#0F3858"/>
<path d="M14.1009 24.2839C14.1009 25.191 14.4062 25.5462 14.8958 25.5462C15.3948 25.5462 15.6856 25.191 15.6856 24.2787C15.6856 23.3769 15.3998 23.0164 14.8958 23.0164C14.3967 23.0164 14.1009 23.3769 14.1009 24.2839ZM16.359 24.2787C16.359 25.3905 15.7921 26.0391 14.8958 26.0391C13.9993 26.0391 13.4277 25.41 13.4277 24.2839C13.4277 23.1768 13.9993 22.5238 14.8958 22.5238C15.7921 22.5238 16.359 23.1528 16.359 24.2787Z" fill="#0F3858"/>
<path d="M18.0712 23.1094V25.9663H17.4267V23.1094H16.5254V22.5973H19.0113L18.9434 23.1094H18.0712Z" fill="#0F3858"/>
<path d="M19.7515 24.2839C19.7515 25.191 20.0569 25.5462 20.5465 25.5462C21.0454 25.5462 21.3362 25.191 21.3362 24.2787C21.3362 23.3769 21.0502 23.0164 20.5465 23.0164C20.0471 23.0164 19.7515 23.3769 19.7515 24.2839ZM22.0096 24.2787C22.0096 25.3905 21.4427 26.0391 20.5465 26.0391C19.65 26.0391 19.0781 25.41 19.0781 24.2839C19.0781 23.1768 19.65 22.5238 20.5465 22.5238C21.4427 22.5238 22.0096 23.1528 22.0096 24.2787Z" fill="#0F3858"/>
<path d="M23.6443 24.1526C24.0419 24.1526 24.2646 23.9917 24.2646 23.5873C24.2646 23.2216 24.0565 23.0655 23.5912 23.0655H23.247V24.1526H23.6443ZM23.247 24.6162V25.9663H22.6074V22.5973H23.6057C24.4827 22.5973 24.9334 22.9192 24.9334 23.5873C24.9334 24.0457 24.7104 24.3184 24.2549 24.4985L25.1322 25.9663H24.3954L23.6543 24.6162H23.247Z" fill="#0F3858"/>
<path d="M14.5679 30.1296C14.5679 31.0366 14.873 31.3926 15.3626 31.3926C15.8618 31.3926 16.1526 31.0366 16.1526 30.125C16.1526 29.2225 15.8666 28.862 15.3626 28.862C14.8635 28.862 14.5679 29.2225 14.5679 30.1296ZM16.8262 30.125C16.8262 31.2362 16.2592 31.8848 15.3626 31.8848C14.4661 31.8848 13.8945 31.2557 13.8945 30.1296C13.8945 29.023 14.4661 28.3694 15.3626 28.3694C16.2592 28.3694 16.8262 28.9985 16.8262 30.125Z" fill="#0F3858"/>
<path d="M17.4238 31.8115V28.4425H18.0681V31.8115H17.4238Z" fill="#0F3858"/>
<path d="M20.8336 31.2853L20.7609 31.8115H18.8516V28.4425H19.4911V31.2853H20.8336Z" fill="#0F3858"/>
<path d="M12.0317 3.35387L11.9269 1.84698C11.9232 1.79665 11.8819 1.75802 11.8319 1.75802H11.6402C11.5904 1.75802 11.5489 1.79665 11.5454 1.84698L11.4407 3.35387H10.8659L10.7614 1.84698C10.7577 1.79665 10.7164 1.75802 10.6664 1.75802H10.4747C10.4247 1.75802 10.3834 1.79665 10.3797 1.84698L10.2752 3.35387H9.70042L9.59567 1.84698C9.59224 1.79665 9.55065 1.75802 9.50093 1.75802H9.30917C9.25921 1.75802 9.21785 1.79665 9.21419 1.84698L9.10944 3.35387H8.53492L8.43017 1.84698C8.42674 1.79665 8.38515 1.75802 8.33519 1.75802H8.14367C8.09371 1.75802 8.05212 1.79665 8.04869 1.84698L7.94394 3.35387H7.36919L7.26467 1.84698C7.261 1.79665 7.21965 1.75802 7.16969 1.75802H6.97817C6.9282 1.75802 6.88662 1.79665 6.88319 1.84698L6.77844 3.35387H6.1582V4.04102H12.6517V3.35387H12.0317Z" fill="#34476C"/>
</svg>
