<svg width="39" height="40" viewBox="0 0 39 40" fill="none" xmlns="http://www.w3.org/2000/svg">
<path d="M17.8694 38.14V34.8285L17.4212 33.0829V28.7141L16.7715 27.6595V18.4736H21.7715V27.6595L21.1215 28.7141V33.0829L20.6734 34.8285V38.14L19.2715 39.4736L17.8694 38.14Z" fill="#5E9EA7"/>
<path d="M19.2704 18.0694H16.6992V27.3272L17.3961 28.4082V32.9067L17.8767 34.6958V38.051L19.2704 39.3184L20.6644 38.051V34.6958L21.145 32.9067V28.4082L21.8419 27.3272V18.0694H19.2704Z" fill="#B0D2D3"/>
<path d="M18.5527 33.4786L18.7374 35.3375V38.7098L19.2726 39.3179L19.808 38.7098V35.3375L19.9926 33.4786V28.8071V18.0689H19.2726H18.5527V28.8071V33.4786Z" fill="#5E9EA7"/>
<path d="M18.7012 33.4786L18.8477 35.3375V38.7098L19.2726 39.3179L19.6975 38.7098V35.3375L19.844 33.4786V28.8071V18.0689H19.2726H18.7012V28.8071V33.4786Z" fill="#B0D2D3"/>
<path d="M23.0357 3.84922C21.5006 1.92803 19.8929 1.92803 19.2715 1.92803C18.6504 1.92803 17.0425 1.92803 15.5076 3.84922C15.3191 4.08495 15.5964 4.33884 16.1339 4.27394C16.8492 4.18775 17.8231 3.72771 19.2715 3.722C20.7202 3.72771 21.6941 4.18775 22.4093 4.27394C22.9467 4.33884 23.2238 4.08495 23.0357 3.84922ZM27.252 16.4688C26.1535 18.3453 22.5108 19.4736 19.2715 19.4736C16.0325 19.4736 12.3895 18.3453 11.2909 16.4688C9.91751 14.1218 11.5655 8.24508 12.7934 5.46611C14.1311 2.43843 16.2202 0.473633 19.2715 0.473633C22.323 0.473633 24.4119 2.43843 25.7498 5.46611C26.9776 8.24508 28.6255 14.1218 27.252 16.4688Z" fill="#0F3858"/>
<path d="M24.9476 11.7487C24.1663 10.1971 21.5756 9.2652 19.272 9.2652C16.9686 9.2652 14.3778 10.1971 13.5966 11.7487C13.3469 12.2445 13.2383 12.9314 13.2285 13.7168C13.2383 14.5022 13.3469 15.1891 13.5966 15.6854C14.3778 17.2366 16.9686 18.1689 19.272 18.1689C21.5756 18.1689 24.1663 17.2366 24.9476 15.6854C25.1972 15.1891 25.3057 14.5022 25.3156 13.7168C25.3057 12.9314 25.1972 12.2445 24.9476 11.7487Z" fill="#F49A22"/>
<path d="M13.833 11.8312C13.5939 12.3062 13.4898 12.9643 13.4805 13.7167C13.4898 14.4691 13.5939 15.1278 13.833 15.6028C14.5515 17.0294 16.8672 17.9074 19.004 17.9756V9.4579C16.8672 9.52606 14.5515 10.4041 13.833 11.8312Z" fill="#0F3858"/>
<path d="M24.7098 11.8312C23.9915 10.4041 21.6759 9.52606 19.5391 9.4579V17.9756C21.6759 17.9074 23.9915 17.0294 24.7098 15.6028C24.9492 15.1278 25.0532 14.4691 25.0626 13.7167C25.0532 12.9643 24.9492 12.3062 24.7098 11.8312Z" fill="#0F3858"/>
<path d="M20.6876 7.01464C20.6876 7.86556 20.0532 8.55566 19.2704 8.55566C18.4878 8.55566 17.8535 7.86556 17.8535 7.01464C17.8535 6.16373 18.4878 5.47363 19.2704 5.47363C20.0532 5.47363 20.6876 6.16373 20.6876 7.01464Z" fill="#F49A22"/>
<path d="M20.5166 7.01404C20.5166 7.76218 19.959 8.36816 19.2709 8.36816C18.583 8.36816 18.0254 7.76218 18.0254 7.01404C18.0254 6.26589 18.583 5.65939 19.2709 5.65939C19.959 5.65939 20.5166 6.26589 20.5166 7.01404Z" fill="#415F79"/>
<path d="M22.8551 14.574C22.8551 14.722 22.7447 14.8418 22.6089 14.8418H21.297C21.161 14.8418 21.0508 14.722 21.0508 14.574V13.0718H22.8551V14.574Z" fill="#E75643"/>
<path d="M21.9531 12.5084C22.2391 12.5084 22.4712 12.7603 22.4712 13.0718H22.6502C22.6502 12.6527 22.338 12.3135 21.9531 12.3135C21.5681 12.3135 21.2559 12.6527 21.2559 13.0718H21.4351C21.4351 12.7603 21.667 12.5084 21.9531 12.5084Z" fill="#E75643"/>
<path d="M17.4334 14.574C17.4334 14.722 17.323 14.8418 17.1871 14.8418H15.8751C15.7391 14.8418 15.6289 14.722 15.6289 14.574V13.0718H17.4334V14.574Z" fill="#F49A22"/>
<path d="M17.7518 12.5084C18.0379 12.5084 18.27 12.7603 18.27 13.0718H18.449C18.449 12.6527 18.1368 12.3135 17.7518 12.3135C17.3669 12.3135 17.0547 12.6527 17.0547 13.0718H17.2339C17.2339 12.7603 17.4658 12.5084 17.7518 12.5084Z" fill="#F49A22"/>
</svg>
