<svg width="39" height="39" viewBox="0 0 39 39" fill="none" xmlns="http://www.w3.org/2000/svg">
<path d="M19.5391 3.17383C10.6451 3.17383 3.4349 10.3953 3.4349 19.3045C3.4349 28.2131 10.6451 35.4352 19.5391 35.4352C28.4332 35.4352 35.6434 28.2131 35.6434 19.3045C35.6434 10.3953 28.4332 3.17383 19.5391 3.17383ZM38.6252 19.3045C38.6252 29.8627 30.08 38.4219 19.5391 38.4219C8.99827 38.4219 0.453125 29.8627 0.453125 19.3045C0.453125 8.74576 8.99827 0.186581 19.5391 0.186581C30.08 0.186581 38.6252 8.74576 38.6252 19.3045Z" fill="#5E9EA7"/>
<path d="M21.1985 33.823C21.281 33.1721 21.4113 32.3456 21.6154 31.4365C20.9356 31.5653 20.2425 31.6305 19.5378 31.6305C18.8337 31.6305 18.14 31.5653 17.4602 31.4365C17.6649 32.3456 17.7946 33.1721 17.8771 33.823C18.4312 33.8866 18.9865 33.9189 19.5378 33.9189C20.0891 33.9189 20.6444 33.8866 21.1985 33.823ZM19.5378 30.1144C21.1005 30.1144 22.5801 29.7366 23.9018 29.0638C22.884 31.6842 22.6366 34.4243 22.5876 35.1422C21.5998 35.3317 20.5809 35.4351 19.5378 35.4351C18.4947 35.4351 17.4763 35.3317 16.488 35.1422C16.439 34.4243 16.1916 31.6842 15.1738 29.0638C16.4955 29.7366 17.9757 30.1144 19.5378 30.1144Z" fill="#0F3858"/>
<path d="M28.6544 14.5703C26.0844 14.0412 22.9538 13.6144 19.539 13.6144C16.1242 13.6144 12.9936 14.0412 10.4241 14.5703C9.76966 16.0004 9.40234 17.6067 9.40234 19.3047C9.40234 20.9387 9.74313 22.4884 10.3521 23.8774C10.5498 23.9473 10.7511 24.0213 10.9569 24.1044C13.0524 24.9465 14.3608 26.9664 15.175 29.0641C16.4967 29.737 17.9769 30.1147 19.539 30.1147C21.1017 30.1147 22.5813 29.737 23.903 29.0641C24.7178 26.9664 26.0256 24.9465 28.121 24.1044C28.3275 24.0213 28.5281 23.9473 28.7265 23.8774C29.3354 22.4884 29.6762 20.9387 29.6762 19.3047C29.6762 17.6067 29.3083 16.0004 28.6544 14.5703Z" fill="#292E30"/>
<path d="M19.539 29.9629C18.1066 29.9629 16.7279 29.6238 15.4408 28.955C14.464 26.3784 13.0732 24.6988 11.3064 23.9635C11.1259 23.8885 10.95 23.8203 10.7759 23.7562C10.1923 22.3556 9.89648 20.8579 9.89648 19.3042C9.89648 17.6928 10.2136 16.1454 10.8393 14.7032C13.7801 14.0817 16.7065 13.7663 19.539 13.7663C22.372 13.7663 25.2984 14.0817 28.2387 14.7032C28.8643 16.1454 29.1815 17.6928 29.1815 19.3042C29.1815 20.8579 28.8856 22.3556 28.3021 23.7562C28.1279 23.8203 27.9521 23.8885 27.7716 23.9635C26.0048 24.6988 24.6139 26.3784 23.6371 28.955C22.3501 29.6238 20.9713 29.9629 19.539 29.9629Z" fill="#0F3858"/>
<path d="M23.1752 19.2238C23.1752 21.2361 21.5468 22.8672 19.5378 22.8672C17.5288 22.8672 15.9004 21.2361 15.9004 19.2238C15.9004 17.2115 17.5288 15.5804 19.5378 15.5804C21.5468 15.5804 23.1752 17.2115 23.1752 19.2238Z" fill="#292E30"/>
<path d="M22.8695 19.2239C22.8695 21.0663 21.3777 22.5605 19.5382 22.5605C17.6988 22.5605 16.207 21.0663 16.207 19.2239C16.207 17.3814 17.6988 15.8872 19.5382 15.8872C21.3777 15.8872 22.8695 17.3814 22.8695 19.2239Z" fill="#F49A22"/>
<path d="M3.62406 19.3048C3.62406 23.241 5.05701 26.8485 7.4264 29.6325L5.04374 32.019C2.06831 28.62 0.261719 24.1697 0.261719 19.3048C0.261719 15.3044 1.48245 11.5842 3.57044 8.49821L6.24084 10.5584C4.58763 13.0709 3.62406 16.0767 3.62406 19.3048Z" fill="#415F79"/>
<path d="M35.4527 19.3048C35.4527 23.241 34.0198 26.8485 31.6504 29.6325L34.033 32.019C37.0091 28.62 38.8157 24.1697 38.8157 19.3048C38.8157 15.3044 37.5943 11.5842 35.5064 8.49821L32.836 10.5584C34.4892 13.0709 35.4527 16.0767 35.4527 19.3048Z" fill="#415F79"/>
<path d="M32.5973 21.6428C33.0171 21.6428 33.3983 21.6676 33.7385 21.7075C33.8723 20.915 33.9392 20.1116 33.9392 19.3042C33.9392 18.7191 33.9034 18.1305 33.8319 17.5466C33.1347 17.3046 32.1458 16.9869 30.9222 16.6611C31.0998 17.5217 31.1892 18.4049 31.1892 19.3042C31.1892 20.1393 31.1119 20.9601 30.9585 21.7623C31.515 21.6826 32.0622 21.6428 32.5973 21.6428ZM28.7264 23.8774C29.3353 22.4884 29.6761 20.9387 29.6761 19.3047C29.6761 17.6066 29.3082 16.0004 28.6543 14.5703C31.9573 15.2507 34.3278 16.0974 35.1922 16.429C35.3623 17.3623 35.4528 18.3228 35.4528 19.3047C35.4528 20.7585 35.2562 22.1672 34.89 23.5066C34.2782 23.2848 32.0962 22.6859 28.7264 23.8774Z" fill="#E75643"/>
<path d="M7.88865 19.3042C7.88865 18.4049 7.97802 17.5217 8.15562 16.6611C6.93085 16.9869 5.9425 17.3046 5.24593 17.5466C5.17442 18.1299 5.13867 18.7185 5.13867 19.3042C5.13867 20.1116 5.20614 20.915 5.33935 21.7075C5.67956 21.6676 6.0607 21.6428 6.48049 21.6428C7.01619 21.6428 7.56285 21.6826 8.1193 21.7623C7.96591 20.9601 7.88865 20.1393 7.88865 19.3042ZM4.1878 23.5066C3.82163 22.1672 3.625 20.7585 3.625 19.3047C3.625 18.3228 3.71553 17.3623 3.88622 16.429C4.75002 16.0974 7.12057 15.2507 10.4241 14.5703C9.76963 16.0004 9.40231 17.6066 9.40231 19.3047C9.40231 20.9387 9.7431 22.4884 10.352 23.8774C6.98217 22.6859 4.7996 23.2848 4.1878 23.5066Z" fill="#E75643"/>
</svg>
