<svg width="39" height="40" viewBox="0 0 39 40" fill="none" xmlns="http://www.w3.org/2000/svg">
<path d="M25.2177 6.61668C26.7114 6.61668 28.9839 5.85835 29.2932 4.62396C29.4065 4.05886 29.4994 3.35077 29.4532 3.21196C29.3795 3.03445 29.205 2.91831 29.0108 2.91831H18.3668C16.707 2.91831 15.9001 3.9591 15.9001 6.10062V6.61668H25.2177ZM8.9192 39.2202C6.8218 39.2202 5.11523 37.5176 5.11523 35.4249V12.7844C5.11523 11.2416 6.03895 9.86418 7.46859 9.27617L13.7578 6.68791V4.78C13.7578 2.68752 15.4644 0.984921 17.5618 0.984921H30.4794C32.5768 0.984921 34.2834 2.68752 34.2834 4.78V35.4249C34.2834 37.5176 32.5768 39.2202 30.4794 39.2202H8.9192Z" fill="#5E9EA7"/>
<path d="M15.6853 6.83189V6.10041C15.6853 4.12336 16.3861 2.70226 18.3678 2.70226H29.0118C29.293 2.70226 29.5471 2.8714 29.6544 3.13119C29.7623 3.39074 29.504 4.67584 29.504 4.67584C29.1527 6.07708 26.704 6.83189 25.2187 6.83189H15.6853ZM30.4804 1.19989H17.5627C15.581 1.19989 13.9746 2.80273 13.9746 4.77979V6.83189L7.5523 9.47523C6.20898 10.0277 5.33203 11.3346 5.33203 12.7841V35.4247C5.33203 37.402 6.93849 39.0049 8.9202 39.0049H30.4804C32.4615 39.0049 34.068 37.402 34.068 35.4247V6.83189V4.77979C34.068 2.80273 32.4615 1.19989 30.4804 1.19989Z" fill="#B0D2D3"/>
<path d="M18.6135 25.209C18.2287 25.209 17.917 24.8978 17.917 24.514V20.4066C17.917 20.0225 18.2287 19.7116 18.6135 19.7116H20.7858C21.1701 19.7116 21.4824 20.0225 21.4824 20.4066V24.514C21.4824 24.8978 21.1701 25.209 20.7858 25.209H18.6135ZM23.6427 24.514V20.4066C23.6427 20.3813 23.6397 20.3568 23.6391 20.3323L31.4568 10.02C31.4538 10.0177 31.4509 10.0154 31.4479 10.0135C30.4378 9.25824 29.007 9.4596 28.2451 10.4632L22.4528 18.0968C21.9835 17.7583 21.4086 17.5562 20.7858 17.5562H18.7664L9.31338 11.172C8.60365 12.2179 8.87819 13.6401 9.92659 14.3482L16.3441 18.6823C15.9772 19.1614 15.7566 19.7583 15.7566 20.4066V24.514C15.7566 24.5565 15.7608 24.5976 15.7626 24.6394L8.30273 34.9267C8.3339 34.9477 8.36508 34.9681 8.39625 34.9883C9.41827 35.6586 10.7838 35.4112 11.5055 34.4256L17.028 26.8833C17.4818 27.1865 18.0273 27.3643 18.6135 27.3643H20.6144L30.7957 35.1066C30.8208 35.0701 30.8454 35.0344 30.87 34.9984C31.5557 33.9974 31.3394 32.6403 30.3773 31.8988L23.0451 26.2514C23.4185 25.7699 23.6427 25.1681 23.6427 24.514Z" fill="#5E9EA7"/>
<path d="M12.4221 7.27163L7.76758 9.19336L7.29883 8.06292L11.9534 6.14071L12.4221 7.27163Z" fill="#F49A22"/>
<path d="M12.9824 5.71517L6.27122 8.48584L5.30493 6.15576C5.13649 5.74974 5.33012 5.28392 5.73713 5.11592L10.9737 2.95384C11.3807 2.78584 11.8477 2.97908 12.0161 3.38581L12.9824 5.71517Z" fill="#34476C"/>
<path d="M13.4277 5.06122L5.49012 8.33838L4.67969 6.38513L12.6179 3.10845L13.4277 5.06122Z" fill="#415F79"/>
<path d="M6.14577 8.06826L5.79811 8.21191L4.98828 6.25867L5.33594 6.11567L6.14577 8.06826Z" fill="#34476C"/>
<path d="M6.91922 7.74819L6.57155 7.8916L5.76172 5.93835L6.10939 5.79494L6.91922 7.74819Z" fill="#34476C"/>
<path d="M7.69461 7.42829L7.34694 7.57129L6.53711 5.61876L6.88418 5.47505L7.69461 7.42829Z" fill="#34476C"/>
<path d="M8.47 7.10805L8.12233 7.25146L7.3125 5.29894L7.66017 5.15552L8.47 7.10805Z" fill="#34476C"/>
<path d="M9.24537 6.78744L8.89772 6.93115L8.08789 4.97832L8.43555 4.83491L9.24537 6.78744Z" fill="#34476C"/>
<path d="M10.0208 6.46792L9.67311 6.61133L8.86328 4.6588L9.21095 4.51509L10.0208 6.46792Z" fill="#34476C"/>
<path d="M10.7962 6.14779L10.4485 6.2915L9.63867 4.33868L9.98574 4.19527L10.7962 6.14779Z" fill="#34476C"/>
<path d="M11.5716 5.82778L11.2239 5.97119L10.4141 4.01866L10.7617 3.87495L11.5716 5.82778Z" fill="#34476C"/>
<path d="M12.345 5.50795L11.9973 5.65137L11.1875 3.69812L11.5352 3.55471L12.345 5.50795Z" fill="#34476C"/>
<path d="M13.1204 5.18757L12.7727 5.33057L11.9629 3.37804L12.3106 3.23432L13.1204 5.18757Z" fill="#34476C"/>
</svg>
